<svg width="18" height="19" viewBox="0 0 18 19" fill="none" xmlns="http://www.w3.org/2000/svg">
<path d="M11.0241 7.47587L6.97606 11.5239C6.43927 10.9871 6.1377 10.259 6.1377 9.49987C6.1377 9.12398 6.21173 8.75177 6.35558 8.40449C6.49943 8.05721 6.71027 7.74166 6.97606 7.47587C7.24186 7.21007 7.5574 6.99923 7.90468 6.85538C8.25196 6.71154 8.62417 6.6375 9.00006 6.6375C9.75921 6.6375 10.4873 6.93907 11.0241 7.47587Z" stroke="white" stroke-width="1.5" stroke-linecap="round" stroke-linejoin="round"/>
<path d="M13.6559 4.51598C12.2559 3.45998 10.6559 2.88398 8.99987 2.88398C6.17587 2.88398 3.54387 4.54798 1.71187 7.42798C0.991875 8.55598 0.991875 10.452 1.71187 11.58C2.34387 12.572 3.07987 13.428 3.87987 14.116M6.13587 15.524C7.04787 15.908 8.01587 16.116 8.99987 16.116C11.8239 16.116 14.4559 14.452 16.2879 11.572C17.0079 10.444 17.0079 8.54798 16.2879 7.41998C16.0239 7.00398 15.7359 6.61198 15.4399 6.24398" stroke="white" stroke-width="1.5" stroke-linecap="round" stroke-linejoin="round"/>
<path d="M11.808 10.06C11.6996 10.6181 11.427 11.131 11.025 11.533C10.623 11.935 10.1101 12.2076 9.552 12.316M6.976 11.524L1 17.5M17 1.5L11.024 7.476" stroke="white" stroke-width="1.5" stroke-linecap="round" stroke-linejoin="round"/>
</svg>
