<svg width="18" height="15" viewBox="0 0 18 15" fill="none" xmlns="http://www.w3.org/2000/svg">
<path d="M13.484 2.516C12.084 1.46 10.484 0.884003 8.828 0.884003C6.004 0.884003 3.372 2.548 1.54 5.428C0.82 6.556 0.82 8.452 1.54 9.58C2.172 10.572 2.908 11.428 3.708 12.116M5.964 13.524C6.876 13.908 7.844 14.116 8.828 14.116C11.652 14.116 14.284 12.452 16.116 9.572C16.836 8.444 16.836 6.548 16.116 5.42C15.852 5.004 15.564 4.612 15.268 4.244" stroke="white" stroke-width="1.5" stroke-linecap="round" stroke-linejoin="round"/>
<path d="M8.65601 5C9.59926 5 10.4807 5.45451 11.1365 6.09082C11.806 6.74052 12.156 7.49462 12.156 8C12.156 8.45574 11.8591 8.94399 11.2195 9.34375C10.5869 9.73911 9.68186 10 8.65601 10C7.63015 10 6.7251 9.73911 6.09253 9.34375C5.45294 8.94399 5.15601 8.45574 5.15601 8C5.15601 7.49462 5.50601 6.74052 6.17554 6.09082C6.83128 5.45451 7.71275 5 8.65601 5Z" fill="white" stroke="white"/>
</svg>
