<svg width="23" height="27" viewBox="0 0 23 27" fill="none" xmlns="http://www.w3.org/2000/svg">
<path d="M13.5 10.125V13.75H16.1C16.3 13.75 16.4 14 16.4 14.25L16 16.625C16 16.75 15.8 16.875 15.7 16.875H13.5V26H10.5V17H8.8C8.6 17 8.5 16.875 8.5 16.625V14.25C8.5 14 8.6 13.875 8.8 13.875H10.5V9.75C10.5 7.625 11.8 6 13.5 6H16.2C16.4 6 16.5 6.125 16.5 6.375V9.375C16.5 9.625 16.4 9.75 16.2 9.75H13.8C13.6 9.75 13.5 9.875 13.5 10.125Z" stroke="#FF6C6C" stroke-width="1.5" stroke-miterlimit="10" stroke-linecap="round"/>
<path d="M14.5 26H8.5C3.5 26 1.5 23.5 1.5 17.25V9.75C1.5 3.5 3.5 1 8.5 1H14.5C19.5 1 21.5 3.5 21.5 9.75V17.25C21.5 23.5 19.5 26 14.5 26Z" stroke="#FF6C6C" stroke-width="1.5" stroke-linecap="round" stroke-linejoin="round"/>
</svg>
