<svg width="18" height="19" viewBox="0 0 18 19" fill="none" xmlns="http://www.w3.org/2000/svg">
<path d="M4.36761 7.9V6.3C4.36761 3.652 5.16761 1.5 9.16761 1.5C13.1676 1.5 13.9676 3.652 13.9676 6.3V7.9M9.16761 14.7C9.69805 14.7 10.2068 14.4893 10.5818 14.1142C10.9569 13.7391 11.1676 13.2304 11.1676 12.7C11.1676 12.1696 10.9569 11.6609 10.5818 11.2858C10.2068 10.9107 9.69805 10.7 9.16761 10.7C8.63718 10.7 8.12847 10.9107 7.7534 11.2858C7.37833 11.6609 7.16761 12.1696 7.16761 12.7C7.16761 13.2304 7.37833 13.7391 7.7534 14.1142C8.12847 14.4893 8.63718 14.7 9.16761 14.7Z" stroke="white" stroke-width="1.5" stroke-linecap="round" stroke-linejoin="round"/>
<path d="M13.1677 17.5H5.16766C1.96766 17.5 1.16766 16.7 1.16766 13.5V11.9C1.16766 8.69999 1.96766 7.89999 5.16766 7.89999H13.1677C16.3677 7.89999 17.1677 8.69999 17.1677 11.9V13.5C17.1677 16.7 16.3677 17.5 13.1677 17.5Z" stroke="white" stroke-width="1.5" stroke-linecap="round" stroke-linejoin="round"/>
</svg>
