<svg width="257" height="267" viewBox="0 0 257 267" fill="none" xmlns="http://www.w3.org/2000/svg">
<ellipse cx="128.5" cy="133.5" rx="128" ry="133.5" fill="white"/>
<path d="M97.811 87.6802L129.802 94.0244C129.802 94.0244 157.738 87.076 160.742 86.6229C163.746 86.1697 165.243 88.9284 162.394 92.0607L156.086 98.1029L148.877 97.0455L150.529 102.634C150.956 103.994 151.221 107.075 150.829 107.317C151.446 110.871 152.66 115.119 152.482 115.927C152.181 117.287 146.023 121.667 135.059 124.386C124.095 127.105 111.779 112.604 111.779 112.604L112.83 104.9L108.475 102.181L109.376 97.9518L102.167 99.1602L103.518 93.2691L96.6095 94.0244V88.7376L97.811 87.6802Z" fill="#FF5678"/>
<path d="M205.5 174.795C205.5 181.42 194.341 180.365 178.505 180.365C162.67 180.365 160.742 179.451 160.742 174.795C160.742 171.857 163.986 170.077 170.253 167.418C173.921 165.861 177.107 163.955 181.163 161.696C194.59 163.051 204.801 169.676 205.5 174.795Z" fill="#292731"/>
<path d="M50.5 174.795C50.5 181.42 61.6589 180.365 77.4945 180.365C93.3302 180.365 92.5543 181.76 92.5543 177.104C92.5543 174.166 92.0135 170.077 85.7467 167.418C82.0786 165.861 82.4913 165.019 80.3886 161.847C66.9612 163.202 51.1993 169.676 50.5 174.795Z" fill="#292731"/>
<path d="M180.823 189.162C184.105 190.562 187.217 192.008 190.056 194.047C193.84 196.765 197.78 199.263 201.21 202.46C202.316 203.491 203.313 204.611 204.25 205.789C206.144 208.166 205.807 210.726 203.347 212.58C200.402 214.8 196.919 215.477 193.394 215.987C189.031 216.62 185.194 215.429 180.823 215.987C179.817 216.075 180.417 216.226 178.465 215.32C177.714 214.867 176.863 214.478 176.009 214.297C170.933 213.217 165.969 211.773 161.087 209.985C155.941 208.1 150.913 205.901 145.664 204.279C143.485 203.607 141.384 202.591 139.314 201.621C136.525 200.314 135.222 197.582 134.074 194.883C133.641 193.866 133.163 193.016 132.164 192.507C131.092 191.96 130.524 190.907 129.785 190.029C128.42 188.407 127.277 188.346 125.476 189.483C123.454 190.761 122.077 192.369 121.91 194.849C121.861 195.58 121.65 196.164 120.914 196.569C120.537 196.776 120.373 197.381 120.124 197.813C119.693 198.559 119.896 200.001 118.312 199.468C117.938 200.939 116.355 200.633 115.517 201.392C113.765 202.977 111.673 203.886 109.509 204.704C103.478 206.986 97.9857 210.27 92.6932 213.92C90.3817 215.514 88.0039 217.006 85.5225 218.314C82.5735 219.869 79.3556 219.544 76.2424 219.272C72.9597 218.985 69.6536 219.102 66.3838 218.53C63.9349 218.102 61.5956 217.452 59.553 216.033C57.0177 214.27 56.3594 210.85 58.1602 208.12C61.0687 203.711 64.8002 200.137 69.2672 197.275C75.7738 193.106 81.9929 188.54 87.3097 182.851C87.5836 182.557 87.8552 182.259 88.0965 181.939C88.427 181.5 88.7275 181.039 89.1541 180.424C87.3148 180.818 85.7633 180.127 84.1454 179.881C82.132 179.574 80.3928 179.545 77.9897 179.394C77.2387 179.346 76.6379 179.091 73.3337 178.487C70.1796 177.732 70.1796 177.75 67.183 177.35C66.4247 177.248 65.2113 176.855 64.4722 176.826C63.6477 176.794 63.3645 176.901 62.6929 176.454C61.434 175.615 60.1198 175.009 58.6367 174.608C56.5329 174.038 56.2021 172.027 57.8637 170.554C60.1501 168.528 62.9314 167.504 65.8586 167.008C68.975 166.479 72.0206 165.739 74.9601 164.608C76.6928 163.94 78.5671 163.873 80.3437 163.149C80.3941 161.359 79.5698 159.757 79.1208 158.099C78.5233 155.894 78.3154 153.661 78.0932 151.42C77.9237 149.711 77.5962 149.324 75.9143 149.824C74.4056 150.272 72.9846 150.426 71.3882 150.218C68.4946 149.841 66.4957 148.376 65.0431 145.955C63.4013 143.22 62.657 140.188 62.5282 137.061C62.3857 133.603 61.9758 130.13 62.4732 126.668C62.8323 124.168 63.5284 121.755 64.7278 119.532C67.4078 114.566 69.921 109.489 72.9168 104.72C76.7726 98.5826 81.5703 93.1576 86.776 88.1189C92.8877 82.2033 99.9234 77.6535 107.491 73.8661C109.876 72.6725 112.266 71.5959 114.911 71.1253C115.909 70.9477 116.492 70.1383 116.885 69.2123C117.458 67.8605 118.297 66.9218 119.842 66.4943C121.479 66.0412 123.007 65.1877 124.584 64.5085C124.241 63.6032 123.791 63.9316 123.314 64.0928C121.548 64.6893 120.929 64.3266 120.615 62.5021C120.552 62.1335 120.333 62.0127 120.082 61.8517C117.561 60.2369 117.133 58.4058 118.807 55.7893C119.377 54.8986 119.682 53.6203 120.379 53.1243C122.145 51.8659 122.507 49.7946 123.745 48.2857C124.653 47.1788 125.37 47.2379 126.06 48.4853C126.789 49.8038 127.53 50.2168 128.67 48.9739C128.799 48.8326 129.004 48.6731 129.175 48.6725C130.365 48.6686 131.344 49.4857 132.63 49.4006C134.066 49.3057 134.443 50.5331 134.571 51.7826C134.606 52.1226 134.805 52.4256 135.117 52.6487C136.575 53.6909 136.965 54.6855 136.352 56.3928C136.086 57.1319 136.216 57.5937 136.632 58.1702C137.617 59.5334 137.432 60.1025 135.847 60.8971C135.404 61.1194 134.969 61.3646 134.511 61.5498C134.345 61.6169 134.121 61.5395 133.798 61.5208C133.94 62.4028 133.681 63.1752 133.02 63.9838C134.333 64.5623 135.658 64.4495 136.881 64.7008C140.116 65.3654 141.974 67.4807 143.176 70.3206C143.616 71.3614 144.157 71.8928 145.289 71.7527C148.279 71.3827 151.175 71.9351 153.992 72.8418C163.377 75.8619 171.862 80.7112 178.934 87.4737C184.846 93.1283 190.001 99.6142 193.116 107.466C194.407 110.721 196.042 113.839 197.152 117.18C197.957 119.602 198.476 122.091 199.02 124.578C199.723 127.798 199.553 131.066 199.623 134.328C199.693 137.644 198.467 140.482 197.147 143.431C196.242 145.454 194.697 146.747 193.305 148.17C191.749 149.759 189.545 150.284 187.266 149.937C185.643 149.69 184.911 150.228 184.636 151.992C184.143 155.158 183.341 158.268 181.899 161.184C181.154 162.691 181.471 163.047 183.112 163.034C187.694 162.997 191.998 164.276 196.087 166.175C197.521 166.84 198.743 168.132 199.83 169.347C201.288 170.977 199.354 173.22 197.561 173.538C196.905 173.655 196.414 173.828 196.081 174.343C195.391 175.413 194.232 174.664 193.292 175.102C192.045 175.683 190.463 175.741 189.038 175.682C187.179 175.605 185.368 176.088 183.509 175.911C179.979 175.575 176.737 176.759 173.515 177.985C172.213 178.48 170.903 178.903 169.487 178.964C168.719 178.997 168.087 179.424 167.574 180.157C171.212 184.275 175.892 186.803 180.823 189.162ZM97.9417 162.939C97.7978 162.488 98.1168 161.915 97.6174 161.573C96.5041 161.647 95.8883 162.981 94.7127 162.767C94.4543 162.25 94.7118 161.968 94.9515 161.728C96.407 160.271 98.467 159.617 99.8346 158.027C100.017 157.815 100.404 157.839 100.676 158.032C101.165 158.376 100.295 158.689 100.628 159.046C101.738 159.226 102.424 158.618 103.033 157.822C104.04 156.507 104.983 155.13 106.106 153.924C107.091 152.865 107.169 151.904 106.253 150.877C103.632 147.937 101.718 144.497 99.5072 141.267C98.9989 140.525 98.4154 139.953 97.4871 139.865C96.064 139.729 95.4548 138.909 95.563 137.524C95.6802 136.026 94.8608 135.583 93.5493 135.602C92.7167 135.614 91.9858 135.856 91.3138 136.349C90.3268 137.073 89.4628 136.96 88.7525 135.916C88.4119 135.416 88.0429 134.955 87.3981 134.794C86.7503 134.632 86.051 134.366 86.1251 133.555C86.1987 132.749 86.9706 132.68 87.5998 132.518C89.7702 131.96 90.5946 129.765 89.3647 127.885C89.1216 127.514 88.9178 127.092 88.8058 126.664C88.673 126.156 88.9212 125.639 89.4522 125.706C90.9042 125.892 92.6152 125.652 93.5363 127.125C94.54 128.73 96.3561 129.422 97.2538 131.079C98.6214 130.094 99.2067 128.303 101.346 128.288C100.572 129.48 99.1987 129.765 99.0677 131.1C99.3511 130.959 99.4682 130.653 99.6818 130.45C100.875 129.318 102.596 129.162 103.786 130.049C105.035 130.98 105.363 132.567 104.533 134.113C104.156 134.814 103.658 135.463 103.139 136.07C102.369 136.973 102.37 137.809 103.012 138.801C103.909 140.185 105.079 141.315 106.075 142.596C106.688 142.269 106.96 141.784 107.288 141.341C108.98 139.054 111.292 138.426 113.876 139.532C114.979 140.004 116.084 140.469 117.188 140.939C119.722 142.017 120.39 143.855 119.122 146.279C117.948 148.521 116.172 150.063 113.767 150.827C112.782 151.14 112.185 151.514 113.003 152.602C114.657 154.804 116.286 157.026 117.9 159.204C118.836 155.663 120.818 152.938 123.86 151.013C124.57 150.564 125.368 150.419 125.705 151.652C125.09 151.946 124.196 151.645 123.969 152.541C126.442 153.278 127.451 154.628 126.418 156.314C124.822 158.916 122.818 161.184 119.326 161.094C119.566 162.024 119.976 162.865 120.613 163.575C121.854 164.958 122.534 166.678 123.444 168.26C123.663 168.642 123.724 169.196 124.245 169.279C124.882 169.38 125.105 168.789 125.308 168.376C126.258 166.436 127.933 165.38 129.805 164.584C131.432 163.892 132.984 164.266 134.31 165.32C135.572 166.324 135.873 167.747 135.461 169.281C134.661 172.253 132.778 174.394 130.23 176.004C129.566 176.423 128.774 176.655 128.267 177.293C129.077 179.175 129.182 179.217 130.89 178.537C131.304 178.371 131.743 178.172 132.175 178.161C134.598 178.103 136.881 177.291 139.215 176.797C140.548 176.514 142.13 176.19 142.523 174.446C142.283 173.866 141.458 174.337 141.265 173.4C142.312 172.118 143.799 171.295 145.523 170.902C146.356 170.712 147.187 170.733 147.808 171.588C148.391 172.393 149.141 172.186 149.741 171.574C151.244 170.04 152.987 168.751 154.398 166.988C153.002 166.598 152.875 165.501 152.953 164.365C153.055 162.876 152.593 161.6 151.746 160.417C150.476 158.64 150.484 158.634 148.609 159.792C146.324 161.204 144.982 160.809 144.285 158.514C143.898 158.775 143.583 159.306 143.005 158.886C143.21 157.589 143.374 157.365 145.639 155.261C146.932 154.06 146.886 153.768 145.874 152.414C142.532 147.946 138.494 144.061 135.269 139.502C134.448 138.341 133.619 138.322 132.48 139.06C130.68 140.225 128.909 140.145 127.631 139.003C126.281 137.796 126.107 136.487 127.013 134.337C128.339 131.188 128.339 131.188 125.836 128.877C125.652 128.706 125.451 128.554 125.268 128.383C121.094 124.491 116.161 121.672 111.468 118.515C110.622 117.945 109.982 118.119 109.266 118.908C107.295 121.078 105.033 122.883 102.258 123.949C100.005 124.814 97.9829 123.896 97.2683 121.576C96.4949 119.066 97.5575 116.963 98.8766 114.945C99.2184 114.422 99.899 114.091 99.8029 113.325C97.2734 111.742 96.024 112.114 94.9027 114.764C94.3453 116.081 92.5769 117.385 91.4031 117.24C89.8468 117.047 89.2694 115.941 89.0699 114.522C89.0466 114.356 88.8525 114.214 88.7522 114.081C86.8095 114.637 85.2866 116.644 85.0534 118.888C86.7247 119.844 86.8807 120.361 86.2314 122.265C85.7669 123.627 84.8083 124.595 83.7021 125.36C82.6146 126.112 82.0389 127.051 81.9257 128.329C81.7128 130.731 81.4524 133.131 81.3095 135.537C81.2011 137.361 81.4919 137.558 83.3612 137.654C84.4677 137.711 85.6799 137.368 86.6339 138.293C86.5022 138.657 86.2305 139.011 86.3019 139.27C87.2303 142.637 85.4349 144.851 83.1624 146.848C82.2101 147.685 81.9542 148.678 82.3251 149.832C82.7862 151.266 83.0733 152.761 83.5693 154.164C84.12 155.72 83.8307 157.585 85.1214 158.891C85.3349 158.803 85.4819 158.762 85.6088 158.687C88.3187 157.083 88.3178 157.083 89.9883 159.458C90.0747 159.581 90.1757 159.695 90.2802 159.803C90.9678 160.514 91.0846 161.389 90.9897 162.319C90.8765 163.43 90.1564 164.24 89.5663 165.103C89.1733 165.677 88.7872 166.305 89.2936 166.881C90.082 167.777 90.8775 168.721 92.0101 169.218C93.2374 169.757 95.4236 169.566 95.6082 168.825C95.9462 167.468 96.8324 166.557 97.6953 165.583C98.3279 164.868 98.3335 164.032 97.9417 162.939ZM151.057 117.211C152.644 116.01 152.727 115.443 151.622 113.874C150.156 111.79 148.358 109.907 147.695 107.332C147.262 105.649 147.847 104.196 149.232 103.482C149.618 103.283 150.143 103.342 150.436 102.81C150.256 101.924 149.473 101.368 149.01 100.621C148.253 99.4005 148.024 98.1521 148.806 96.9376C149.624 95.6653 150.927 95.882 152.201 96.0835C153.169 96.2364 154.027 96.916 155.023 96.7328C155.391 96.3264 155.242 95.9176 155.222 95.5258C155.112 93.3779 156.142 92.1376 158.271 91.8466C159.234 91.715 160.167 91.9372 161.095 92.1152C162.269 92.3402 162.781 91.8184 162.884 90.7063C162.972 89.7468 162.973 88.8041 162.624 87.8807C162.285 86.9818 161.709 86.5979 160.758 86.8806C159.56 87.2365 158.374 87.6458 157.16 87.9315C148.705 89.9213 140.245 91.889 131.785 93.8521C130.701 94.1035 129.609 94.0544 128.512 93.8486C120.954 92.4307 113.458 90.7262 105.975 88.9606C103.267 88.3215 100.531 87.8017 97.7088 87.5274C97.7536 88.0694 97.8324 88.5043 97.8139 88.9351C97.7923 89.4353 97.6756 89.9306 97.6171 90.4301C97.3634 92.5989 97.7755 92.9648 99.874 92.5261C100.899 92.3118 101.934 92.0768 102.974 92.0252C104.54 91.9472 105.254 92.8155 105.045 94.392C104.986 94.8355 104.843 95.2712 104.706 95.6999C104.384 96.709 104.831 97.0186 105.752 96.8595C106.491 96.732 107.219 96.5455 107.955 96.3999C109.128 96.1678 110.243 96.128 111.083 97.2307C111.877 98.2724 111.203 99.1453 110.79 100.026C110.108 101.477 110.359 102.442 111.743 103.373C113.388 104.479 113.849 105.922 113.169 107.778C112.789 108.814 112.45 109.865 112.061 110.898C111.591 112.145 111.918 113.104 112.9 113.989C114.11 115.08 115.542 115.857 116.79 116.848C120.086 119.468 123.027 122.07 127.659 122.806C133.41 123.72 138.515 121.763 143.883 120.999C146.539 120.621 148.695 118.853 151.057 117.211ZM180.79 154.082C180.995 153.155 181.142 152.209 181.419 151.304C181.854 149.883 181.494 149.372 180.014 149.688C178.902 149.925 177.907 149.755 177.366 148.822C176.905 148.028 176.275 148.017 175.552 148.004C175.552 147.646 175.464 147.355 175.565 147.167C177.077 144.35 178.158 141.251 180.728 139.117C181.695 138.314 182.446 137.294 182.253 136.002C181.976 134.143 182.122 132.283 181.993 130.43C181.911 129.256 181.919 128.046 181.386 126.87C181.133 126.999 180.96 127.087 180.787 127.175C179.968 127.587 179.117 128.052 178.313 127.221C177.562 126.445 177.499 125.549 178.058 124.597C178.566 123.732 178.988 122.814 179.522 121.968C180.018 121.181 180.014 120.479 179.469 119.739C179.112 119.254 178.808 118.73 178.456 118.241C177.141 116.409 176.318 116.232 174.433 117.371C173.919 117.681 173.424 118.026 172.907 118.333C170.648 119.674 168.647 119.325 168.449 116.17C168.444 116.093 168.327 116.023 168.205 115.884C166.74 116.032 165.399 116.693 164.001 117.213C162.275 117.855 161.16 118.721 160.642 120.734C159.927 123.515 158.088 125.737 155.532 127.165C153.849 128.106 152.406 127.533 151.736 125.843C151.084 124.197 150.329 123.921 148.82 124.739C144.766 126.938 141.125 129.817 137.051 131.987C136.439 132.313 136.063 132.853 136.219 133.61C136.471 134.836 136.718 136.044 137.563 137.066C140.953 141.166 144.299 145.303 147.679 149.413C148.017 149.825 148.303 150.334 148.955 150.525C149.616 149.613 150.189 148.598 150.973 147.788C152.494 146.215 153.745 144.505 154.568 142.456C155.036 141.289 155.757 140.219 156.651 139.339C157.547 138.458 158.652 137.49 159.948 138.336C161.395 139.28 162.318 138.8 163.533 137.885C165.521 136.388 167.323 134.579 169.71 133.667C170.549 133.347 171.398 133.223 172.001 134.107C172.57 134.944 172.295 135.761 171.769 136.487C171.147 137.346 170.353 138.048 169.515 138.69C168.573 139.412 168.109 140.257 168.734 141.42C169.064 142.033 168.972 142.694 168.965 143.344C168.96 143.822 168.856 144.266 168.306 144.389C167.779 144.508 167.457 144.19 167.207 143.785C166.826 143.166 166.457 142.539 166.037 141.839C164.335 142.945 163.185 144.444 161.734 145.587C158.549 148.097 155.651 150.973 152.157 153.088C151.258 153.633 151.157 154.315 151.862 155.201C152.672 156.22 153.418 157.306 154.062 158.438C154.577 159.342 155.101 159.412 156.02 159.052C157.013 158.663 158.101 157.809 159.056 158.858C159.165 160.489 158.631 161.809 157.925 163.096C157.542 163.793 157.599 164.517 158.044 165.241C158.699 166.305 159.083 167.421 158.216 168.598C158.083 168.78 158.072 169.077 158.107 169.121C161.034 170.395 163.841 169.647 166.616 169.331C167.98 169.175 169.376 168.896 170.662 168.285C171.149 168.053 171.598 167.793 171.567 167.216C171.509 166.13 171.903 165.133 172.128 164.115C172.663 161.686 173.694 159.455 175.17 157.449C175.463 157.051 175.904 156.532 176.398 156.94C177.046 157.476 176.207 157.741 176.004 158.124C175.874 158.37 175.581 158.589 175.842 158.956C177.921 158.199 180.377 157.904 180.51 154.875C180.518 154.688 180.663 154.507 180.79 154.082ZM81.4986 213.911C81.35 214.184 80.8973 214.521 81.5837 214.66C82.1289 214.769 82.6717 214.665 83.2059 214.482C85.4543 213.709 87.4919 212.502 89.3884 211.123C94.2189 207.612 99.1566 204.331 104.708 202.037C107.024 201.08 109.488 200.582 111.755 199.511C112.966 198.94 113.633 198.088 113.891 196.678C114.782 191.804 114.713 186.863 114.991 181.954C115.218 177.95 114.327 177.693 111.036 177.141C107.026 176.47 103.079 175.741 99.8502 172.907C98.5681 171.782 97.9448 172.043 96.9177 173.388C96.299 174.199 95.8794 175.089 95.4707 176.012C92.3398 183.086 87.5357 188.924 81.7957 193.945C77.8014 197.44 73.4252 200.474 68.9837 203.401C65.9081 205.427 63.5345 208.213 61.3951 211.189C63.1863 212.819 64.1495 212.754 65.3285 210.957C66.655 208.936 68.566 207.552 70.4338 206.117C70.8458 205.8 71.2782 205.536 71.7847 205.948C72.2276 206.308 72.3347 206.81 72.198 207.312C72.0826 207.737 71.8406 208.133 71.6187 208.521C70.7216 210.09 69.2317 211.193 68.2408 212.706C70.5599 214.06 71.681 213.859 73.072 211.802C74.1849 210.155 75.4749 208.711 77.2158 207.724C77.8803 207.347 78.5482 207.277 79.1418 207.869C79.7021 208.429 79.5552 209.058 79.2684 209.682C78.9212 210.437 78.3015 210.944 77.6812 211.462C76.7855 212.209 75.7712 212.844 75.1269 213.899C76.6699 214.606 77.0701 214.535 78.1154 213.451C78.6379 212.91 79.1207 212.312 79.7119 211.859C80.4726 211.276 81.3897 210.227 82.3076 211.147C83.2254 212.065 82.2012 212.96 81.4986 213.911ZM161.399 204.905C167.542 207.722 174.134 209.267 180.409 211.7C182.136 212.369 183.672 212.164 185.389 211.539C184.66 210.487 183.678 209.873 182.806 209.145C182.109 208.564 181.392 207.998 181.142 207.069C180.997 206.532 180.888 205.949 181.34 205.503C181.794 205.054 182.426 205.1 182.892 205.36C185.33 206.717 187.919 207.891 189.5 210.393C190.421 211.849 191.305 212.089 192.965 211.34C192.788 210.66 192.179 210.324 191.774 209.828C190.643 208.442 189.21 207.26 188.835 205.364C188.69 204.628 188.681 203.909 189.369 203.475C190.122 202.999 190.718 203.511 191.209 204.022C192.703 205.577 194.136 207.195 195.376 208.963C196.851 211.066 196.982 211.145 199.432 210.22C199.853 210.061 200.256 209.856 200.669 209.677C202.442 208.905 202.493 208.446 200.989 207.131C194.751 201.672 187.838 197.214 180.141 194.254C172.884 191.463 167.112 186.977 162.417 180.883C160.612 178.539 158.706 176.274 156.851 173.969C155.689 172.525 155.505 172.472 154.483 173.987C151.508 178.395 146.915 180.246 142.205 181.851C140.286 182.505 140.195 182.349 141.1 184.159C142.5 186.957 143.166 189.865 142.025 192.871C141.479 194.309 141.916 195.313 142.765 196.3C143.494 197.148 144.44 197.754 145.484 198.122C150.86 200.017 155.949 202.593 161.399 204.905ZM95.4771 96.726C94.047 97.1457 92.4932 97.3348 91.2108 98.0302C87.8896 99.8311 84.7221 101.878 81.704 104.203C79.5462 105.866 77.6099 107.731 75.7164 109.636C74.5145 110.845 73.6998 112.451 72.7553 113.908C72.3204 114.579 71.4681 115.041 71.4012 115.857C71.2576 117.612 70.1311 118.98 69.4713 120.46C68.7019 122.184 67.859 123.772 67.6129 125.698C67.4819 126.724 67.6129 126.199 67.4717 128.011C67.4717 128.616 67.5023 128.657 67.5316 129.407C67.6023 131.215 67.5316 132.392 67.7721 134.658C68.0725 135.866 68.2598 136.601 68.3839 136.924C68.9413 138.375 69.0679 138.585 69.7713 140.113C70.8243 142.401 72.8522 143.46 74.6096 144.86C75.3326 145.436 76.0682 146.252 77.3407 146.272C77.0416 143.819 77.3159 141.415 77.1164 139.026C76.7633 134.799 77.0663 130.603 77.4345 126.397C77.5281 125.327 78.4244 124.147 77.9656 123.366C77.1752 122.022 78.0774 121.386 78.5261 120.485C78.7941 119.947 79.0546 119.391 79.213 118.814C80.0295 115.839 81.6236 113.308 83.5646 110.971C84.2225 110.178 85.0764 109.636 86.0405 109.327C90.2427 107.98 94.5051 107.402 98.8579 108.522C99.6011 108.714 100.013 108.513 100.225 107.804C100.649 106.381 101.682 105.429 102.746 104.498C104.067 103.343 105.405 102.205 106.688 101.008C107.081 100.642 107.695 100.333 107.619 99.6156C107.05 99.3785 106.57 99.5169 106.104 99.7057C102.812 101.04 99.5041 102.341 96.4231 104.143C96.0353 104.37 95.6326 104.585 95.2123 104.738C94.6582 104.94 94.108 104.891 93.7132 104.389C93.3512 103.93 93.4841 103.437 93.7305 102.971C94.1392 102.198 94.7691 101.622 95.4381 101.088C97.1255 99.7395 98.716 98.2845 100.188 96.7018C100.502 96.3645 101.038 96.0939 100.719 95.3427C99.0272 95.6736 97.3394 96.0502 95.4771 96.726ZM153.64 110.926C154.071 111.415 154.485 111.921 154.937 112.39C156.593 114.11 157.185 114.252 159.256 113.13C161.511 111.908 163.911 111.037 166.288 110.131C174.113 107.149 180.043 110.74 183.055 117.927C184.834 122.171 185.252 126.681 185.37 131.21C185.482 135.485 185.381 139.765 185.404 144.042C185.414 145.807 186.023 146.252 187.64 145.603C189.075 145.028 190.499 144.388 191.839 143.62C194.98 141.819 195.316 139.396 195.418 135.89C195.418 135.89 195.141 134.38 195.141 133.171C194.84 129.999 194.56 127.923 192.625 125.336C192.326 124.937 192.093 124.483 191.869 124.034C189.358 119.011 186.304 114.374 182.195 110.517C178.665 107.204 174.443 104.836 170.568 101.995C167.368 99.6493 164.28 97.2425 159.951 96.3896C161.977 98.3416 163.831 100.092 165.638 101.89C166.136 102.386 166.569 103.047 166.029 103.773C165.442 104.562 164.693 104.278 164.006 103.91C162.371 103.036 160.722 102.194 158.969 101.585C156.699 100.796 154.505 99.7587 151.815 99.1668C152.606 100.407 153.59 100.825 154.423 101.422C156.615 102.992 159.148 104.097 160.931 106.223C161.537 106.946 162.021 107.777 161.328 108.667C160.68 109.5 159.771 109.247 158.993 108.871C157.58 108.188 156.069 107.813 154.567 107.481C153.567 107.26 152.506 106.767 151.347 107.243C151.829 108.644 152.836 109.598 153.64 110.926ZM173.629 88.8143C173.54 87.9374 172.632 88.2006 172.215 87.7871C170.155 85.7474 167.839 84.069 165.31 82.6593C162.018 80.8241 159.032 78.457 155.45 77.1175C153.761 76.4858 151.997 76.174 150.297 75.6125C149.598 75.3816 148.973 75.7035 149.175 76.4983C149.672 78.4595 149.415 80.2479 148.02 82.0136C148.723 82.0136 149.132 82.0898 149.502 82.0016C152.516 81.2838 155.577 81.6156 158.619 81.5494C160.202 81.515 161.505 81.9276 161.75 83.8077C163.109 83.8944 164.707 83.4645 165.039 85.3916C165.352 87.2047 165.798 88.9935 165.673 90.8798C165.589 92.1428 165.846 93.3326 167.338 93.8884C169.152 94.5638 170.897 95.3622 172.493 96.5571C174.8 98.2855 177.283 99.7769 179.696 101.363C181.875 102.797 184.215 104.01 185.963 106.03C187.476 107.78 188.991 109.527 190.571 111.351C190.286 110.163 189.467 109.301 189.159 108.373C188.365 105.984 186.75 104.2 185.421 102.201C183.706 99.621 181.903 97.1476 179.812 94.8162C177.913 92.7003 176.019 90.6646 173.629 88.8143ZM119.572 78.7368C118.99 78.7973 118.407 78.8578 117.832 78.9176C117.022 82.1093 117.844 83.5144 120.904 84.1964C122.798 84.6185 122.77 84.6155 122.972 82.7228C123.049 81.9976 123.394 81.33 124.209 81.212C125.113 81.0811 125.468 81.8004 125.624 82.48C125.779 83.1522 125.701 83.8788 125.722 84.5815C125.736 85.0277 125.601 85.6689 126.075 85.8034C127.755 86.2799 129.185 87.2661 130.865 88.295C130.916 86.5515 130.052 85.2909 130.155 83.8928C130.213 83.0902 129.813 81.8772 130.905 81.7288C131.879 81.5964 132.067 82.7971 132.333 83.5758C132.83 85.0337 132.801 86.5996 133.069 88.1801C133.365 88.0819 133.575 88.0611 133.726 87.955C135.824 86.4775 137.993 85.1667 140.531 84.5581C141.332 84.366 141.553 83.624 141.438 82.8604C141.184 81.1731 140.869 79.4954 140.613 77.8085C140.482 76.9446 140.072 76.7157 139.256 76.986C138.387 77.2742 137.55 77.1106 136.876 76.4799C136.026 75.6853 135.367 75.8728 134.561 76.6248C133.051 78.0351 131.308 78.136 129.87 76.7685C128.904 75.8501 128.304 76.0424 127.509 76.8589C126.419 77.9781 124.985 78.6607 123.575 77.9412C121.975 77.1245 120.88 77.5252 119.572 78.7368ZM109.081 156.07C108.342 157.485 107.595 158.896 106.867 160.317C106.432 161.165 106.006 162.016 105.909 162.992C105.724 164.835 104.524 165.802 102.932 166.402C102.514 166.56 102.043 166.591 101.64 166.777C100.37 167.363 100.296 168.323 101.406 169.134C102.691 170.073 103.944 170.475 105.347 169.296C105.854 168.869 106.543 168.479 107.305 169.243C106.588 169.931 106.83 170.592 107.601 170.932C108.504 171.331 108.616 170.443 108.885 169.894C109.901 167.821 110.822 165.696 111.951 163.688C112.778 162.215 112.741 160.938 111.721 159.665C110.801 158.516 110.653 156.848 109.081 156.07ZM111.671 142.893C110.926 143.25 110.316 144.108 109.152 143.548C110.063 141.658 112.027 141.367 113.697 140.35C111.311 139.53 109.668 140.436 108.206 141.871C106.849 143.204 106.767 143.954 107.922 145.389C108.623 146.259 109.239 147.19 109.685 148.181C110.408 149.786 111.435 150.205 113.286 149.573C115.501 148.817 117.322 147.361 118.366 145.135C118.922 143.951 118.705 142.959 117.512 142.331C115.549 141.297 113.66 141.535 111.671 142.893ZM101.477 114.135C101.095 114.588 100.796 115.184 100.315 115.466C98.9511 116.265 98.5753 117.685 98.2016 118.974C97.4278 121.644 99.1396 123.315 101.754 122.427C104.64 121.448 106.955 119.572 109.015 116.984C106.543 115.758 104.382 114.253 101.477 114.135ZM131.751 166.457C130.377 166.711 129.281 167.512 128.242 168.364C125.454 170.651 125.453 170.726 126.507 174.147C126.981 175.684 127.582 176.006 129.035 175.239C131.46 173.96 133.119 171.961 134.13 169.393C134.987 167.218 134.354 166.315 131.751 166.457ZM94.4392 88.261C94.5091 87.63 95.1096 87.0396 94.7425 86.3912C91.9141 87.8187 89.973 90.1554 87.8572 92.2303C85.791 94.2565 83.5142 96.1642 81.9125 98.7939C82.1721 98.816 82.2341 98.842 82.269 98.8214C85.766 96.7606 89.3295 94.8646 93.3629 94.0574C93.9399 93.9419 94.3997 93.4905 94.2632 92.8517C93.9495 91.3837 94.4689 89.9617 94.4392 88.261ZM107.464 85.8177C106.233 85.8177 105.001 85.8177 103.769 85.8177C103.973 86.0543 104.197 86.1644 104.43 86.1909C109.853 86.8066 114.968 88.7752 120.286 89.8464C122.194 90.2307 124.11 90.5893 126.034 90.8778C126.689 90.976 127.414 90.7574 127.582 89.9863C127.785 89.0616 126.892 89.1485 126.401 88.96C120.401 86.6534 114.189 85.5888 107.464 85.8177ZM152.319 84.6714C150.847 84.9214 149.357 85.0983 147.906 85.4415C146.405 85.7965 144.94 86.3053 143.463 86.7606C142.035 87.2011 140.574 87.5679 139.197 88.1356C137.873 88.6812 136.305 88.7802 135.324 90.1245C143.09 88.4353 150.627 85.9118 158.448 84.4986C156.463 84.1334 154.521 84.3848 152.319 84.6714ZM101.873 81.0375C100.57 82.6249 98.5076 83.252 97.1525 84.8313C100.859 81.9312 105.194 82.3915 109.688 82.5843C108.623 80.9575 108.372 79.3237 107.86 77.6467C105.783 78.6803 104.114 80.1557 101.873 81.0375ZM152.66 123.927C152.482 125.54 153.12 126.197 154.513 125.837C156.557 125.308 159.608 121.634 159.792 119.359C157.8 119.68 156.198 120.803 154.473 121.635C153.559 122.076 152.937 122.703 152.66 123.927ZM106.39 111.042C108.325 109.885 109.876 108.364 111.084 106.356C109.025 105.81 103.558 107.812 102.19 109.54C103.438 110.303 104.764 110.782 106.39 111.042ZM180.464 148.056C182.386 147.16 182.967 144.849 182.021 141.496C180.46 142.486 179.186 143.691 178.228 145.204C177.807 145.867 177.454 146.653 178.002 147.446C178.559 148.252 179.347 148.396 180.464 148.056ZM120.151 159.589C122.248 159.125 123.804 157.873 125.016 156.152C125.893 154.907 125.549 154.133 124.041 153.87C121.938 153.502 118.905 157.182 119.63 159.234C119.673 159.356 119.844 159.431 120.151 159.589ZM117.509 169.138C117.172 168.639 116.824 168.402 116.379 169.042C116.094 169.452 115.804 169.865 115.467 170.231C114.665 171.102 113.749 171.925 112.483 171.523C111.31 171.149 110.892 170.094 110.792 168.914C110.787 168.865 110.656 168.827 110.559 168.768C110.407 169.025 110.245 169.277 110.105 169.54C109.152 171.323 109.262 171.655 111.246 171.957C113.806 172.348 116.386 172.607 118.958 172.915C119.268 172.953 119.558 172.896 119.751 172.432C119.071 171.426 118.351 170.359 117.509 169.138ZM175.424 165.609C176.996 163.955 177.845 161.916 178.671 159.761C175.527 159.947 172.246 164.359 173.242 166.882C174.107 166.859 174.645 166.223 175.424 165.609ZM131.818 137.842C132.767 137.521 132.947 136.903 132.388 136.119C131.584 134.992 130.761 133.869 129.584 133.09C128.625 133.54 128.323 134.437 127.956 135.225C127.654 135.872 127.276 136.617 127.881 137.338C128.515 138.093 129.334 138.351 130.286 138.197C130.727 138.126 131.163 138.015 131.818 137.842ZM115.693 168.017C116.034 166.697 115.497 165.271 114.493 165.043C113.214 164.753 112.528 165.645 112.069 166.606C111.704 167.373 111.811 168.281 111.916 169.125C112.049 170.194 112.658 170.49 113.605 170.013C114.426 169.599 114.969 168.862 115.693 168.017ZM99.7393 134.241C100.15 135.188 100.572 136.221 101.884 135.536C103.091 134.905 104.211 132.349 103.706 131.579C103.339 131.021 102.738 130.899 102.132 130.892C100.22 130.869 99.3714 131.95 99.7393 134.241ZM114.461 80.227C113.988 80.0674 113.491 79.9571 113.049 79.7356C112.504 79.4628 111.92 79.0509 112.177 78.3556C112.455 77.6072 113.147 77.8577 113.735 77.9845C114.309 78.1084 114.716 78.6934 115.427 78.5975C115.938 77.6514 115.698 77.0138 114.712 76.5902C113.609 76.1161 111.394 76.7928 110.887 77.8569C110.439 78.7955 110.56 79.7037 111.622 80.1026C113.097 80.6561 114.589 81.1247 115.416 82.849C115.829 81.606 115.629 80.8285 114.461 80.227ZM89.697 162.523C90.2496 161.632 90.0117 160.85 89.256 160.266C88.4247 159.623 87.4476 159.712 86.563 160.135C86.0157 160.397 85.5564 160.924 85.8988 161.616C86.4682 162.766 87.0349 163.937 88.0637 164.775C89.0005 164.333 89.2119 163.459 89.697 162.523ZM137.297 127.349C137.466 127.12 137.769 126.955 137.601 126.388C135.011 127.281 132.37 128.021 129.361 126.95C131.819 130.352 131.974 129.973 134.709 129.172C135.65 128.896 136.414 128.159 137.297 127.349ZM83.8895 144.218C84.6447 143.281 85.391 142.334 85.4292 141.052C85.4444 140.543 85.3578 140.027 84.8403 139.771C84.3679 139.537 83.9763 139.828 83.6071 140.08C81.8465 141.281 81.3678 143.389 82.4338 145.584C82.8891 145.167 83.3202 144.772 83.8895 144.218ZM144.995 78.0456C145.493 78.8303 144.966 79.2419 144.416 79.639C143.901 80.011 143.249 80.3051 143.632 81.2171C144.983 81.1914 145.973 80.4429 146.82 79.5342C147.537 78.7651 147.776 77.8594 146.816 77.0413C145.966 76.3174 144.865 76.5099 144.007 77.5627C144.295 77.6865 144.561 77.8011 144.995 78.0456ZM92.7842 112.791C92.2927 112.876 91.8025 112.969 91.3093 113.042C90.4237 113.173 90.1609 113.708 90.2766 114.545C90.4035 115.463 90.9799 115.688 91.7788 115.581C92.6313 115.466 93.2307 114.908 93.7416 114.291C94.5278 113.342 94.3264 112.955 92.7842 112.791ZM173.75 116.055C173.81 115.931 173.953 115.731 173.919 115.694C173.254 114.971 171.056 114.891 170.34 115.544C169.934 115.914 169.768 116.392 169.962 116.89C170.187 117.471 170.748 117.443 171.236 117.353C172.129 117.189 172.881 116.704 173.75 116.055ZM146.665 156.58C146.066 157.207 145.352 158.047 145.969 158.766C146.629 159.536 147.505 158.75 148.228 158.348C148.271 158.324 148.31 158.29 148.346 158.255C148.713 157.893 149.441 157.694 149.136 156.988C148.895 156.43 148.273 156.332 147.727 156.285C147.447 156.261 147.152 156.414 146.665 156.58ZM83.454 121.53C83.0162 122.305 82.9456 123.149 83.0857 124.163C83.7609 123.69 84.2725 123.088 84.7347 122.45C85.044 122.022 85.5519 121.516 85.0661 120.997C84.4818 120.372 84.0053 120.925 83.454 121.53ZM146.205 172.279C145.12 172.576 144.173 172.996 144.218 174.453C145.133 174.357 145.864 174.013 146.529 173.615C147.221 173.2 147.48 172.638 146.205 172.279ZM100.938 160.804C100.42 160.105 99.8425 160.506 99.4495 160.858C98.6936 161.536 98.9639 162.408 99.1257 163.39C99.9263 162.58 100.493 161.839 100.938 160.804ZM180.132 124.165C179.63 124.672 179.037 125.134 179.14 126.076C180.218 125.988 180.924 125.55 181.103 124.552C181.217 123.914 180.969 123.541 180.132 124.165ZM157.068 160.19C155.762 161.008 155.74 161.301 156.998 162.352C157.327 161.64 158.244 161.085 157.068 160.19ZM160.089 139.362C159.59 139.325 159.042 139.146 158.697 139.779C160.104 140.324 160.165 140.309 160.089 139.362Z" fill="#292731"/>
<path d="M138.614 159.567C137.069 160.157 135.678 160.096 134.661 158.88C133.543 157.544 133.245 155.924 133.762 154.221C133.978 153.507 134.276 152.818 134.536 152.119C134.126 151.617 133.691 152.441 133.32 152.028C132.975 151.647 133.167 151.299 133.418 150.967C134.48 149.566 136.872 148.621 138.329 149.077C140.654 149.805 142.542 151.112 142.932 153.685C143.209 155.511 142.058 156.906 140.853 158.15C140.257 158.766 139.503 159.171 138.614 159.567ZM137.55 150.6C135.255 151.84 134.653 153.899 134.858 156.317C134.98 157.755 135.818 158.455 137.271 158.379C139.359 158.27 140.575 156.957 141.514 155.245C142.202 153.992 141.946 152.9 140.964 151.986C140.077 151.16 139.072 150.497 137.55 150.6Z" fill="#292731"/>
<path d="M98.0194 149.391C100.828 149.608 102.45 152.57 101.087 154.821C100.006 156.606 98.6093 158.073 96.7046 159.011C95.7749 159.469 94.834 159.68 94.1041 158.834C93.393 158.01 92.799 157.034 93.1702 155.83C93.4208 155.017 93.7177 154.219 94.0111 153.364C92.8064 153.143 92.7632 152.604 93.5968 151.777C94.8154 150.569 96.4883 150.234 98.0194 149.391ZM98.5312 151.472C96.266 151.685 93.9791 154.536 94.3119 156.746C94.4616 157.741 95.0352 157.995 95.9191 157.608C97.4538 156.937 98.7432 155.938 99.7542 154.596C101.176 152.709 101.003 152.193 98.5312 151.472Z" fill="#292731"/>
<path d="M118.169 128.837C117.818 131.73 114.461 134.672 111.725 134.625C110.244 134.599 109.276 133.482 109.593 132.034C110.157 129.459 111.857 127.837 114.226 126.943C115.536 126.449 117.25 127.333 118.169 128.837ZM112.628 129.173C111.918 129.817 111.335 130.553 110.911 131.423C110.661 131.935 110.388 132.429 110.795 132.957C111.227 133.516 111.858 133.524 112.436 133.331C114.189 132.748 115.609 131.661 116.686 130.167C117.273 129.354 116.94 128.772 116.036 128.452C114.842 128.029 113.792 128.376 112.628 129.173Z" fill="#292731"/>
<path d="M117.059 134.542C117.405 133.073 119.041 131.695 120.329 131.664C121.893 131.626 122.887 133.273 122.031 134.639C121.226 135.923 120.144 136.978 118.72 137.603C118.106 137.873 117.456 138.086 116.905 137.547C116.326 136.979 116.607 136.337 116.929 135.749C117.126 135.388 117.347 135.052 117.059 134.542ZM119.52 133.717C118.855 134.324 118.308 134.991 118.238 136.25C119.492 135.435 120.653 134.938 121.089 133.546C120.479 133.216 120.074 133.298 119.52 133.717Z" fill="#292731"/>
<path d="M144.592 168.073C144.491 168.262 144.446 168.352 144.391 168.435C143.805 169.336 143.375 170.553 141.953 170.121C141.114 169.866 140.736 167.938 141.14 166.561C141.526 165.248 142.452 164.661 143.723 164.855C144.613 164.99 144.856 165.637 144.894 166.354C144.923 166.887 144.735 167.432 144.592 168.073ZM142.036 167.768C142.095 168.175 141.896 168.694 142.512 168.885C143.26 168.527 143.445 167.743 143.833 167.127C144.057 166.772 144.12 166.312 143.715 166.054C143.29 165.783 142.856 165.956 142.5 166.298C142.145 166.638 142.099 167.086 142.036 167.768Z" fill="#292731"/>
<path d="M129.011 146.792C128.473 147.565 127.98 148.254 127.432 148.896C126.961 149.45 126.312 149.982 125.666 149.345C125.076 148.763 125.455 148.059 125.945 147.486C127.211 146.004 128.054 145.782 129.011 146.792Z" fill="#292731"/>
<path d="M173.112 160.587C173.589 161.894 173.267 162.979 172.589 163.975C171.649 165.356 170.499 166.525 169.05 167.391C166.738 168.772 165.33 168.232 164.579 165.634C164.214 165.454 163.854 166.121 163.495 165.65C163.286 165.376 163.322 165.051 163.508 164.804C165.105 162.683 165.381 159.947 166.782 157.729C167.109 157.212 167.471 156.744 167.889 156.319C168.52 155.678 169.26 155.287 170.178 155.695C171.153 156.128 171.699 156.864 171.832 158.068C170.724 157.961 170.365 156.445 169.248 156.976C168.138 157.503 167.752 158.659 167.113 159.795C169.333 158.557 171.52 157.287 173.112 160.587ZM169.949 164.812C170.607 164.13 171.308 163.479 171.754 162.625C172.087 161.989 172.324 161.335 171.804 160.66C171.241 159.93 170.432 159.684 169.668 160.001C167.649 160.838 166.16 162.249 165.621 164.472C165.457 165.148 165.657 165.793 166.145 166.259C166.65 166.742 167.263 166.53 167.829 166.296C168.575 165.988 169.23 165.54 169.949 164.812Z" fill="#292731"/>
<path d="M166.153 135.787C165.709 136.233 165.513 136.852 164.697 136.766C164.545 135.933 165.005 135.332 165.55 134.856C166.793 133.771 167.575 132.445 168.18 130.905C169.183 128.347 170.766 127.213 172.676 127.407C173.426 127.483 174.17 127.625 174.643 128.767C172.507 128.405 170.407 128.089 169.578 130.847C170.465 130.439 171.242 130.023 172.06 129.721C172.932 129.399 173.873 129.275 174.578 130.054C175.342 130.899 175.021 131.855 174.582 132.729C174.01 133.864 173.222 134.816 172.14 135.531C169.743 137.115 169.004 137.044 167.282 134.943C166.774 134.977 166.577 135.454 166.153 135.787ZM169.415 132.552C168.869 133.026 168.39 133.552 168.585 134.349C168.713 134.873 169.167 134.977 169.644 134.996C171.179 135.056 173.432 132.979 173.59 131.243C172.047 130.942 170.793 131.577 169.415 132.552Z" fill="#292731"/>
<path d="M151.479 139.001C150.584 140.962 149.332 142.383 147.328 142.997C145.32 143.611 143.643 142.125 144.08 140.06C144.355 138.758 144.933 137.559 144.987 136.161C145.032 134.966 148.434 133.07 149.583 133.382C149.765 133.432 150.056 133.547 150.075 133.666C150.351 135.468 152.009 136.883 151.479 139.001ZM150.286 138.609C150.616 137.214 149.878 136.344 148.741 135.863C147.632 135.394 147.135 136.427 146.609 137.107C146.091 137.778 145.656 138.531 145.298 139.302C144.999 139.947 144.878 140.722 145.47 141.27C146.061 141.818 146.76 141.631 147.422 141.274C148.54 140.671 149.556 139.96 150.286 138.609Z" fill="#292731"/>
<path d="M160.492 134.164C160.323 134.376 160.234 134.5 160.121 134.597C159.331 135.269 158.485 135.933 157.539 134.929C156.872 134.223 157.37 132.78 158.394 132.098C158.955 131.725 159.483 131.678 160.051 132.077C160.797 132.599 160.854 133.28 160.492 134.164Z" fill="#292731"/>
<path d="M136.601 81.1038C136.94 81.8297 136.903 82.4854 136.842 83.1361C136.786 83.7279 136.54 84.245 135.904 84.3383C135.242 84.4354 134.948 83.9182 134.694 83.4079C134.194 82.4031 134.571 81.527 135.187 80.7678C135.674 80.1684 136.156 80.5086 136.601 81.1038Z" fill="#292731"/>
<rect x="123.494" y="96.7433" width="2.70349" height="19.0327" rx="1.35174" fill="black"/>
<rect x="131.905" y="100.369" width="2.70349" height="12.0843" rx="1.35174" fill="black"/>
</svg>
