<svg width="16" height="23" viewBox="0 0 16 23" fill="none" xmlns="http://www.w3.org/2000/svg">
<path d="M7.815 10.4654C7.715 10.4554 7.595 10.4554 7.485 10.4654C6.3372 10.4264 5.24964 9.94219 4.45263 9.11532C3.65562 8.28844 3.21174 7.18381 3.215 6.03536C3.215 3.58536 5.195 1.59536 7.655 1.59536C8.23741 1.58485 8.81619 1.68916 9.35829 1.90234C9.90039 2.11551 10.3952 2.43337 10.8144 2.83777C11.2337 3.24217 11.5692 3.72519 11.8018 4.25924C12.0344 4.7933 12.1595 5.36794 12.17 5.95036C12.1805 6.53277 12.0762 7.11155 11.863 7.65365C11.6498 8.19575 11.332 8.69055 10.9276 9.10981C10.5232 9.52906 10.0402 9.86456 9.50611 10.0971C8.97205 10.3297 8.39741 10.4549 7.815 10.4654ZM2.815 14.1554C0.395 15.7754 0.395 18.4154 2.815 20.0254C5.565 21.8654 10.075 21.8654 12.825 20.0254C15.245 18.4054 15.245 15.7654 12.825 14.1554C10.085 12.3254 5.575 12.3254 2.815 14.1554Z" stroke="white" stroke-width="1.5" stroke-linecap="round" stroke-linejoin="round"/>
</svg>
