<svg width="239" height="265" viewBox="0 0 239 265" fill="none" xmlns="http://www.w3.org/2000/svg">
<path d="M72.892 61.9055L122.181 71.6801C122.181 71.6801 165.222 60.9746 169.85 60.2765C174.478 59.5784 176.784 63.8286 172.395 68.6546L162.676 77.9638L151.569 76.3346L154.115 84.9456C154.772 87.0401 155.181 91.7878 154.577 92.1601C155.527 97.6359 157.398 104.18 157.123 105.426C156.66 107.52 147.172 114.269 130.28 118.458C113.388 122.647 94.4125 100.306 94.4125 100.306L96.0323 88.4364L89.3216 84.2473L90.71 77.731L79.6027 79.5928L81.6853 70.5164L71.0408 71.6801V63.5346L72.892 61.9055Z" fill="#FF5678"/>
<path d="M238.808 196.123C238.808 206.33 221.616 204.705 197.218 204.705C172.82 204.705 169.85 203.297 169.85 196.123C169.85 191.597 174.848 188.854 184.504 184.757C190.155 182.358 195.063 179.421 201.312 175.942C222 178.03 237.731 188.236 238.808 196.123Z" fill="#292731"/>
<path d="M-3.8147e-05 196.123C-3.8147e-05 206.33 17.1925 204.705 41.5904 204.705C65.9883 204.705 64.7929 206.854 64.7929 199.68C64.7929 195.155 63.9598 188.854 54.3045 184.757C48.653 182.358 49.2889 181.062 46.0492 176.175C25.3617 178.262 1.07743 188.236 -3.8147e-05 196.123Z" fill="#292731"/>
<path d="M200.788 218.258C205.845 220.415 210.64 222.643 215.013 225.784C220.844 229.972 226.914 233.821 232.198 238.746C233.903 240.335 235.438 242.061 236.883 243.875C239.8 247.538 239.281 251.482 235.491 254.338C230.954 257.759 225.588 258.801 220.156 259.588C213.434 260.562 207.523 258.728 200.788 259.588C199.238 259.724 200.164 259.957 197.155 258.56C195.998 257.862 194.687 257.263 193.372 256.983C185.551 255.319 177.902 253.095 170.381 250.34C162.453 247.435 154.706 244.047 146.619 241.55C143.263 240.513 140.025 238.949 136.835 237.454C132.538 235.44 130.531 231.231 128.762 227.073C128.095 225.506 127.359 224.197 125.819 223.411C124.168 222.569 123.292 220.947 122.154 219.594C120.051 217.096 118.29 217 115.516 218.754C112.401 220.722 110.278 223.2 110.021 227.021C109.946 228.146 109.621 229.047 108.486 229.671C107.906 229.989 107.653 230.922 107.269 231.587C106.606 232.736 106.918 234.957 104.478 234.137C103.902 236.403 101.463 235.932 100.171 237.101C97.4723 239.542 94.2499 240.943 90.9157 242.204C81.6239 245.72 73.1612 250.779 65.0069 256.403C61.4457 258.859 57.7822 261.157 53.9592 263.173C49.4156 265.568 44.4579 265.067 39.6613 264.648C34.6037 264.206 29.51 264.387 24.4722 263.506C20.6992 262.846 17.095 261.845 13.948 259.658C10.0419 256.943 9.02766 251.673 11.8021 247.467C16.2832 240.674 22.0323 235.167 28.9146 230.758C38.9393 224.335 48.521 217.3 56.7127 208.534C57.1347 208.083 57.5532 207.623 57.9248 207.13C58.4341 206.454 58.897 205.743 59.5543 204.795C56.7205 205.402 54.3302 204.338 51.8375 203.959C48.7354 203.487 46.0558 203.441 42.3533 203.208C41.1963 203.135 40.2707 202.743 35.1798 201.812C30.3203 200.648 30.3203 200.675 25.7036 200.059C24.5353 199.903 22.6658 199.296 21.527 199.252C20.2567 199.202 19.8204 199.367 18.7857 198.678C16.846 197.387 14.8213 196.454 12.5362 195.835C9.295 194.957 8.78533 191.858 11.3453 189.589C14.8679 186.468 19.1531 184.889 23.663 184.125C28.4644 183.311 33.1569 182.171 37.6856 180.427C40.3552 179.4 43.243 179.296 45.9802 178.181C46.0579 175.423 44.7878 172.954 44.096 170.4C43.1755 167.002 42.8551 163.562 42.5129 160.11C42.2516 157.476 41.7471 156.88 39.1558 157.65C36.8314 158.341 34.642 158.578 32.1825 158.257C27.7243 157.676 24.6446 155.419 22.4065 151.69C19.877 147.476 18.7303 142.804 18.5319 137.987C18.3124 132.659 17.6807 127.309 18.4472 121.973C19.0004 118.123 20.0729 114.404 21.9207 110.98C26.0498 103.328 29.9219 95.5057 34.5376 88.1587C40.4781 78.7029 47.8699 70.3446 55.8904 62.5815C65.3067 53.4673 76.1466 46.4575 87.8063 40.6222C91.4807 38.7833 95.1621 37.1245 99.238 36.3994C100.776 36.1258 101.674 34.8788 102.279 33.4522C103.162 31.3694 104.455 29.9231 106.835 29.2645C109.357 28.5664 111.711 27.2514 114.14 26.2049C113.613 24.8102 112.919 25.3161 112.184 25.5645C109.464 26.4835 108.509 25.9247 108.026 23.1137C107.929 22.5458 107.592 22.3597 107.205 22.1117C103.321 19.6238 102.662 16.8025 105.24 12.7714C106.118 11.3991 106.589 9.42962 107.662 8.66537C110.384 6.72649 110.941 3.53526 112.848 1.21048C114.247 -0.494903 115.351 -0.403724 116.415 1.51807C117.539 3.54947 118.681 4.18585 120.436 2.27081C120.635 2.05312 120.952 1.80737 121.214 1.8065C123.048 1.80047 124.556 3.05943 126.538 2.92834C128.749 2.78205 129.33 4.67314 129.528 6.59828C129.582 7.12206 129.888 7.58887 130.369 7.93264C132.616 9.5384 133.216 11.0706 132.271 13.7011C131.862 14.8399 132.062 15.5513 132.704 16.4396C134.221 18.5398 133.936 19.4167 131.494 20.6409C130.811 20.9834 130.142 21.3611 129.436 21.6465C129.18 21.7499 128.835 21.6306 128.338 21.6018C128.555 22.9608 128.156 24.1507 127.139 25.3966C129.162 26.2878 131.203 26.114 133.088 26.5013C138.071 27.5251 140.935 30.7843 142.785 35.1596C143.464 36.7632 144.297 37.582 146.041 37.3661C150.648 36.796 155.109 37.6472 159.45 39.044C173.909 43.6972 186.983 51.1684 197.877 61.5875C206.987 70.2994 214.929 80.2922 219.728 92.3893C221.718 97.4038 224.236 102.208 225.947 107.356C227.187 111.087 227.987 114.923 228.824 118.753C229.907 123.715 229.646 128.75 229.753 133.775C229.862 138.885 227.972 143.257 225.939 147.8C224.544 150.917 222.165 152.909 220.019 155.102C217.622 157.55 214.226 158.358 210.716 157.825C208.214 157.444 207.086 158.272 206.663 160.991C205.904 165.868 204.667 170.661 202.446 175.153C201.298 177.474 201.787 178.023 204.315 178.003C211.374 177.946 218.005 179.917 224.306 182.842C226.515 183.867 228.397 185.857 230.072 187.729C232.319 190.241 229.339 193.696 226.577 194.187C225.566 194.366 224.809 194.633 224.296 195.427C223.233 197.075 221.447 195.921 220 196.595C218.079 197.491 215.64 197.581 213.445 197.489C210.581 197.37 207.792 198.116 204.927 197.843C199.488 197.325 194.494 199.148 189.528 201.038C187.524 201.801 185.505 202.452 183.322 202.546C182.14 202.597 181.166 203.255 180.375 204.384C185.981 210.728 193.191 214.623 200.788 218.258ZM73.0933 177.856C72.8716 177.162 73.3631 176.279 72.5937 175.752C70.8785 175.865 69.9296 177.921 68.1185 177.592C67.7204 176.796 68.1171 176.361 68.4864 175.991C70.7288 173.745 73.9026 172.738 76.0097 170.288C76.2905 169.962 76.887 170 77.3067 170.296C78.0597 170.827 76.7186 171.309 77.2322 171.859C78.9427 172.137 79.9996 171.199 80.938 169.973C82.4886 167.947 83.9424 165.826 85.6728 163.967C87.1904 162.336 87.3099 160.856 85.8992 159.273C81.8599 154.742 78.9117 149.443 75.5053 144.467C74.7221 143.323 73.8232 142.443 72.3929 142.306C70.2004 142.097 69.2619 140.833 69.4286 138.7C69.609 136.391 68.3467 135.71 66.326 135.739C65.0432 135.757 63.9172 136.131 62.8818 136.89C61.3611 138.006 60.0299 137.831 58.9356 136.223C58.4108 135.452 57.8423 134.742 56.8488 134.494C55.8508 134.245 54.7734 133.835 54.8876 132.585C55.0009 131.343 56.1902 131.236 57.1596 130.987C60.5036 130.127 61.7737 126.746 59.8789 123.849C59.5042 123.277 59.1902 122.627 59.0177 121.967C58.8132 121.186 59.1956 120.388 60.0135 120.492C62.2508 120.778 64.8868 120.409 66.306 122.678C67.8524 125.151 70.6505 126.217 72.0336 128.769C74.1406 127.252 75.0423 124.494 78.3383 124.471C77.1456 126.306 75.03 126.745 74.8282 128.802C75.2648 128.585 75.4453 128.114 75.7743 127.801C77.6122 126.056 80.2636 125.817 82.0981 127.183C84.0226 128.617 84.5269 131.063 83.2483 133.444C82.668 134.524 81.9007 135.524 81.1015 136.46C79.9138 137.85 79.9167 139.139 80.9058 140.667C82.2865 142.8 84.0899 144.541 85.6243 146.514C86.5682 146.01 86.9886 145.263 87.4931 144.58C90.0995 141.056 93.6619 140.089 97.6431 141.794C99.342 142.521 101.045 143.238 102.746 143.961C106.65 145.622 107.679 148.455 105.725 152.188C103.917 155.643 101.181 158.019 97.4752 159.196C95.9574 159.678 95.0376 160.254 96.2975 161.93C98.8472 165.323 101.357 168.746 103.843 172.102C105.285 166.647 108.339 162.448 113.026 159.482C114.119 158.79 115.349 158.567 115.868 160.466C114.921 160.92 113.543 160.457 113.194 161.837C117.004 162.972 118.559 165.051 116.966 167.649C114.507 171.658 111.42 175.152 106.04 175.014C106.409 176.447 107.042 177.743 108.023 178.836C109.935 180.967 110.982 183.618 112.385 186.055C112.723 186.643 112.816 187.497 113.619 187.624C114.6 187.78 114.944 186.869 115.256 186.233C116.721 183.245 119.301 181.617 122.185 180.39C124.692 179.324 127.084 179.901 129.126 181.525C131.07 183.071 131.534 185.265 130.899 187.627C129.666 192.207 126.766 195.506 122.841 197.985C121.817 198.632 120.597 198.989 119.816 199.972C121.063 202.871 121.226 202.936 123.856 201.888C124.495 201.633 125.171 201.326 125.836 201.31C129.57 201.219 133.087 199.969 136.683 199.207C138.737 198.772 141.175 198.273 141.78 195.586C141.41 194.693 140.139 195.418 139.842 193.975C141.455 191.998 143.746 190.73 146.402 190.125C147.685 189.833 148.965 189.864 149.922 191.183C150.821 192.422 151.976 192.103 152.9 191.16C155.217 188.797 157.902 186.812 160.075 184.095C157.925 183.495 157.729 181.804 157.849 180.053C158.006 177.76 157.294 175.794 155.99 173.97C154.033 171.232 154.045 171.224 151.156 173.009C147.636 175.184 145.569 174.576 144.494 171.038C143.897 171.441 143.413 172.259 142.522 171.612C142.839 169.614 143.09 169.269 146.581 166.027C148.573 164.176 148.502 163.726 146.942 161.64C141.794 154.758 135.572 148.771 130.604 141.747C129.339 139.958 128.061 139.93 126.306 141.066C123.534 142.862 120.804 142.738 118.836 140.979C116.755 139.119 116.488 137.102 117.883 133.79C119.927 128.938 119.927 128.938 116.07 125.377C115.786 125.115 115.477 124.88 115.195 124.616C108.763 118.621 101.164 114.277 93.9333 109.412C92.6303 108.535 91.644 108.803 90.5402 110.018C87.504 113.361 84.0191 116.142 79.7432 117.785C76.272 119.118 73.1568 117.703 72.0558 114.129C70.8642 110.262 72.5014 107.021 74.5338 103.912C75.0603 103.107 76.109 102.597 75.9609 101.416C72.0637 98.9778 70.1387 99.5506 68.4112 103.633C67.5524 105.662 64.8278 107.671 63.0194 107.448C60.6215 107.152 59.732 105.446 59.4246 103.261C59.3887 103.005 59.0897 102.787 58.935 102.581C55.9421 103.438 53.5956 106.529 53.2364 109.987C55.8113 111.46 56.0517 112.257 55.0513 115.19C54.3356 117.289 52.8588 118.78 51.1545 119.959C49.4789 121.118 48.592 122.564 48.4175 124.534C48.0896 128.234 47.6884 131.931 47.4681 135.638C47.3011 138.449 47.7492 138.752 50.6292 138.9C52.334 138.987 54.2016 138.459 55.6714 139.884C55.4685 140.445 55.0499 140.991 55.1599 141.39C56.5904 146.577 53.8242 149.989 50.323 153.066C48.8557 154.355 48.4615 155.885 49.0329 157.663C49.7433 159.872 50.1857 162.176 50.9498 164.336C51.7982 166.734 51.3525 169.607 53.3412 171.619C53.6701 171.484 53.8965 171.421 54.0922 171.305C58.2673 168.835 58.2658 168.834 60.8396 172.493C60.9727 172.682 61.1283 172.858 61.2893 173.024C62.3488 174.12 62.5286 175.469 62.3825 176.902C62.208 178.612 61.0985 179.861 60.1894 181.19C59.5839 182.075 58.989 183.042 59.7693 183.93C60.984 185.311 62.2096 186.765 63.9545 187.531C65.8455 188.361 69.2138 188.067 69.4981 186.925C70.0189 184.834 71.3842 183.431 72.7138 181.93C73.6884 180.829 73.6969 179.54 73.0933 177.856ZM154.927 107.404C157.373 105.553 157.501 104.68 155.799 102.262C153.54 99.0515 150.77 96.1505 149.749 92.1827C149.081 89.5898 149.982 87.3522 152.116 86.2519C152.711 85.9451 153.52 86.0361 153.971 85.216C153.694 83.8514 152.488 82.9944 151.774 81.8431C150.608 79.9631 150.256 78.0397 151.459 76.1685C152.72 74.2083 154.727 74.542 156.691 74.8525C158.182 75.0881 159.503 76.1351 161.038 75.8529C161.605 75.2268 161.376 74.597 161.345 73.9933C161.175 70.6841 162.763 68.7731 166.043 68.3247C167.526 68.1219 168.964 68.4644 170.394 68.7385C172.203 69.0852 172.991 68.2813 173.149 66.5679C173.285 65.0895 173.286 63.6372 172.75 62.2144C172.227 60.8296 171.339 60.2381 169.874 60.6735C168.029 61.222 166.202 61.8525 164.331 62.2928C151.305 65.3584 138.271 68.3901 125.235 71.4146C123.565 71.802 121.883 71.7263 120.193 71.4091C108.548 69.2246 97 66.5984 85.4704 63.8782C81.2974 62.8936 77.0825 62.0928 72.7346 61.6702C72.8036 62.5052 72.925 63.1753 72.8964 63.8389C72.8632 64.6096 72.6833 65.3728 72.5933 66.1423C72.2023 69.4838 72.8374 70.0475 76.0705 69.3716C77.6492 69.0415 79.2449 68.6794 80.8461 68.5998C83.2593 68.4798 84.3597 69.8174 84.0376 72.2465C83.9469 72.9297 83.7266 73.6009 83.5158 74.2616C83.0197 75.8163 83.7076 76.2932 85.1268 76.0481C86.2646 75.8516 87.3866 75.5643 88.5201 75.34C90.3279 74.9824 92.0452 74.9211 93.3405 76.62C94.564 78.2249 93.5253 79.5699 92.8881 80.927C91.8383 83.1625 92.2253 84.6495 94.3575 86.0838C96.891 87.788 97.6013 90.0102 96.5536 92.8704C95.9689 94.4667 95.4462 96.0864 94.8466 97.6769C94.1221 99.5988 94.6269 101.075 96.1395 102.439C98.0035 104.12 100.211 105.317 102.132 106.844C107.211 110.881 111.743 114.889 118.878 116.023C127.739 117.432 135.605 114.417 143.875 113.24C147.968 112.657 151.288 109.934 154.927 107.404ZM200.737 164.211C201.053 162.782 201.28 161.325 201.707 159.93C202.377 157.742 201.822 156.955 199.542 157.44C197.828 157.805 196.296 157.544 195.462 156.107C194.751 154.883 193.781 154.866 192.667 154.846C192.667 154.294 192.531 153.846 192.687 153.556C195.017 149.216 196.682 144.442 200.642 141.154C202.133 139.916 203.288 138.345 202.992 136.355C202.565 133.49 202.789 130.625 202.591 127.77C202.465 125.962 202.477 124.096 201.656 122.284C201.266 122.483 201 122.62 200.733 122.754C199.471 123.389 198.16 124.106 196.921 122.826C195.764 121.63 195.667 120.25 196.529 118.783C197.312 117.451 197.961 116.037 198.784 114.732C199.549 113.521 199.542 112.438 198.703 111.298C198.153 110.551 197.684 109.744 197.142 108.99C195.116 106.168 193.847 105.896 190.943 107.649C190.151 108.128 189.389 108.659 188.593 109.132C185.112 111.198 182.028 110.66 181.723 105.799C181.716 105.68 181.536 105.573 181.347 105.36C179.09 105.587 177.025 106.605 174.871 107.407C172.211 108.396 170.494 109.73 169.696 112.832C168.594 117.117 165.76 120.539 161.823 122.74C159.23 124.189 157.006 123.306 155.974 120.703C154.969 118.167 153.806 117.741 151.482 119.001C145.235 122.39 139.626 126.826 133.35 130.17C132.407 130.672 131.827 131.504 132.067 132.669C132.456 134.559 132.836 136.419 134.138 137.994C139.361 144.311 144.517 150.685 149.723 157.017C150.245 157.651 150.685 158.436 151.69 158.73C152.708 157.325 153.591 155.761 154.798 154.513C157.143 152.09 159.07 149.456 160.337 146.298C161.059 144.501 162.169 142.852 163.547 141.496C164.927 140.139 166.63 138.647 168.626 139.95C170.856 141.406 172.278 140.666 174.149 139.256C177.212 136.949 179.99 134.162 183.666 132.758C184.959 132.264 186.268 132.073 187.196 133.436C188.074 134.725 187.649 135.983 186.839 137.103C185.881 138.425 184.658 139.507 183.367 140.495C181.915 141.608 181.2 142.91 182.164 144.703C182.671 145.647 182.53 146.665 182.519 147.666C182.511 148.402 182.351 149.087 181.504 149.277C180.692 149.46 180.195 148.97 179.81 148.345C179.223 147.392 178.655 146.426 178.008 145.348C175.385 147.051 173.613 149.361 171.377 151.123C166.471 154.989 162.006 159.421 156.623 162.68C155.237 163.519 155.082 164.57 156.168 165.935C157.417 167.504 158.566 169.178 159.558 170.922C160.351 172.315 161.159 172.423 162.575 171.868C164.104 171.268 165.78 169.953 167.251 171.569C167.42 174.082 166.598 176.116 165.509 178.098C164.919 179.172 165.007 180.288 165.693 181.403C166.702 183.043 167.294 184.761 165.958 186.575C165.752 186.855 165.735 187.313 165.79 187.381C170.3 189.344 174.625 188.192 178.899 187.704C181.001 187.464 183.152 187.034 185.133 186.093C185.884 185.737 186.576 185.336 186.528 184.446C186.439 182.773 187.045 181.238 187.391 179.668C188.216 175.926 189.804 172.488 192.079 169.399C192.531 168.785 193.209 167.985 193.97 168.614C194.969 169.44 193.676 169.847 193.364 170.438C193.163 170.817 192.711 171.154 193.114 171.72C196.317 170.554 200.102 170.099 200.306 165.433C200.319 165.144 200.542 164.866 200.737 164.211ZM47.7596 256.389C47.5306 256.809 46.8332 257.33 47.8907 257.542C48.7306 257.712 49.5669 257.551 50.39 257.268C53.854 256.078 56.9934 254.218 59.9154 252.094C67.3576 246.684 74.9652 241.629 83.5178 238.095C87.0863 236.621 90.8825 235.853 94.3758 234.204C96.2416 233.323 97.2693 232.011 97.6664 229.838C99.0388 222.329 98.9334 214.716 99.3617 207.153C99.7112 200.983 98.3378 200.588 93.2673 199.738C87.0893 198.703 81.0091 197.581 76.0337 193.215C74.0584 191.482 73.0982 191.883 71.5157 193.956C70.5624 195.205 69.916 196.576 69.2863 197.998C64.4626 208.897 57.0608 217.891 48.2172 225.628C42.0632 231.012 35.3209 235.687 28.4779 240.196C23.7393 243.318 20.0822 247.611 16.7861 252.195C19.5459 254.706 21.0298 254.607 22.8463 251.838C24.89 248.724 27.8342 246.592 30.712 244.381C31.3468 243.893 32.013 243.486 32.7933 244.12C33.4756 244.675 33.6407 245.448 33.4301 246.223C33.2523 246.877 32.8794 247.487 32.5375 248.085C31.1553 250.502 28.8599 252.202 27.3332 254.533C30.9062 256.619 32.6336 256.31 34.7766 253.139C36.4914 250.602 38.4789 248.377 41.1611 246.856C42.1849 246.276 43.2138 246.168 44.1284 247.081C44.9917 247.942 44.7653 248.913 44.3235 249.873C43.7885 251.036 42.8338 251.818 41.878 252.615C40.498 253.766 38.9353 254.745 37.9426 256.37C40.3199 257.46 40.9365 257.35 42.547 255.681C43.3521 254.846 44.0959 253.925 45.0068 253.228C46.1788 252.33 47.5917 250.714 49.006 252.13C50.42 253.546 48.842 254.924 47.7596 256.389ZM170.862 242.514C180.326 246.854 190.482 249.234 200.151 252.982C202.812 254.013 205.177 253.698 207.822 252.734C206.7 251.114 205.187 250.168 203.843 249.047C202.77 248.151 201.665 247.279 201.279 245.848C201.056 245.02 200.889 244.122 201.585 243.435C202.284 242.744 203.258 242.814 203.976 243.214C207.732 245.306 211.721 247.114 214.158 250.969C215.576 253.213 216.937 253.582 219.496 252.428C219.224 251.38 218.285 250.863 217.661 250.098C215.918 247.962 213.71 246.142 213.133 243.221C212.909 242.087 212.896 240.978 213.955 240.31C215.116 239.577 216.033 240.365 216.79 241.153C219.093 243.55 221.3 246.042 223.21 248.766C225.483 252.006 225.685 252.128 229.459 250.702C230.107 250.457 230.729 250.142 231.365 249.865C234.096 248.676 234.176 247.97 231.859 245.943C222.247 237.533 211.597 230.664 199.737 226.104C188.556 221.804 179.664 214.892 172.431 205.503C169.649 201.892 166.712 198.402 163.854 194.851C162.064 192.626 161.781 192.545 160.206 194.878C155.622 201.67 148.547 204.521 141.289 206.995C138.333 208.002 138.193 207.762 139.588 210.55C141.744 214.861 142.771 219.341 141.012 223.973C140.171 226.188 140.845 227.736 142.152 229.256C143.276 230.562 144.733 231.496 146.341 232.062C154.625 234.983 162.465 238.952 170.862 242.514ZM69.2962 75.8424C67.0928 76.4891 64.6989 76.7804 62.7231 77.8518C57.6061 80.6265 52.726 83.7801 48.076 87.3627C44.7514 89.924 41.7681 92.7975 38.8509 95.7326C36.9991 97.5957 35.744 100.07 34.2888 102.315C33.6187 103.349 32.3056 104.06 32.2025 105.318C31.9812 108.021 30.2457 110.13 29.2291 112.409C28.0437 115.066 26.745 117.512 26.3659 120.48C26.164 122.061 26.3659 121.251 26.1483 124.044C26.1483 124.975 26.1955 125.039 26.2406 126.194C26.3495 128.979 26.2406 130.793 26.6111 134.284C27.0739 136.146 27.3626 137.277 27.5537 137.775C28.4125 140.011 28.6075 140.334 29.6913 142.689C31.3136 146.213 34.4381 147.845 37.1457 150.002C38.2596 150.889 39.3928 152.147 41.3534 152.178C40.8926 148.398 41.3153 144.695 41.0078 141.014C40.4638 134.502 40.9307 128.037 41.498 121.556C41.6422 119.908 43.0231 118.09 42.3163 116.887C41.0985 114.815 42.4885 113.836 43.1797 112.448C43.5927 111.619 43.994 110.762 44.2381 109.873C45.496 105.29 47.9522 101.39 50.9427 97.789C51.9562 96.5686 53.2719 95.7329 54.7573 95.2566C61.2315 93.1807 67.7987 92.2912 74.5049 94.0172C75.65 94.312 76.2851 94.0027 76.6106 92.9103C77.264 90.7172 78.8557 89.2506 80.4951 87.8169C82.5306 86.0367 84.592 84.2839 86.5692 82.4399C87.1749 81.875 88.1197 81.3993 88.0037 80.2945C87.1261 79.929 86.3863 80.1423 85.6686 80.4332C80.5963 82.4892 75.5006 84.4934 70.7537 87.2697C70.1561 87.6192 69.5357 87.9513 68.8882 88.1869C68.0344 88.4977 67.1868 88.4222 66.5785 87.6495C66.0208 86.9409 66.2255 86.1827 66.6052 85.4647C67.2349 84.2737 68.2054 83.386 69.236 82.5626C71.8358 80.4852 74.2863 78.2435 76.554 75.8052C77.0374 75.2854 77.8637 74.8685 77.3718 73.7111C74.7659 74.2209 72.1655 74.8012 69.2962 75.8424ZM158.907 97.72C159.571 98.4738 160.209 99.2538 160.905 99.9766C163.458 102.626 164.369 102.845 167.56 101.116C171.035 99.233 174.733 97.8907 178.395 96.4948C190.45 91.9005 199.587 97.4341 204.227 108.507C206.967 115.045 207.612 121.994 207.794 128.972C207.966 135.558 207.811 142.152 207.847 148.743C207.861 151.462 208.799 152.147 211.291 151.148C213.501 150.261 215.696 149.276 217.76 148.092C222.6 145.317 223.117 141.584 223.274 136.183C223.274 136.183 222.848 133.855 222.848 131.994C222.385 127.106 221.954 123.908 218.971 119.921C218.511 119.306 218.151 118.607 217.806 117.916C213.938 110.176 209.234 103.033 202.902 97.0902C197.463 91.9853 190.958 88.337 184.988 83.9608C180.058 80.3464 175.301 76.6382 168.631 75.3242C171.753 78.3316 174.609 81.0281 177.392 83.7992C178.16 84.563 178.827 85.5809 177.995 86.6998C177.091 87.9155 175.937 87.4779 174.878 86.9114C172.36 85.5638 169.819 84.2669 167.118 83.3284C163.62 82.1133 160.24 80.5149 156.095 79.6029C157.314 81.5141 158.831 82.1571 160.115 83.0774C163.491 85.4971 167.395 87.1986 170.14 90.474C171.075 91.5889 171.821 92.8693 170.753 94.2405C169.754 95.5227 168.353 95.1335 167.155 94.5544C164.978 93.5021 162.65 92.9244 160.336 92.4131C158.795 92.0727 157.161 91.3123 155.374 92.0453C156.118 94.2039 157.668 95.6746 158.907 97.72ZM189.704 63.6529C189.568 62.3019 188.169 62.7074 187.526 62.0703C184.353 58.9277 180.783 56.3418 176.888 54.1698C171.816 51.3424 167.214 47.6955 161.696 45.6316C159.094 44.6584 156.377 44.178 153.757 43.313C152.68 42.9572 151.717 43.4531 152.028 44.6776C152.795 47.6993 152.399 50.4546 150.249 53.1751C151.333 53.1751 151.962 53.2924 152.533 53.1566C157.176 52.0507 161.892 52.5619 166.579 52.4599C169.017 52.4069 171.025 53.0425 171.402 55.9392C173.497 56.0727 175.958 55.4105 176.47 58.3795C176.953 61.173 177.639 63.929 177.446 66.8352C177.317 68.781 177.713 70.6142 180.012 71.4706C182.806 72.511 185.496 73.7412 187.954 75.5821C191.509 78.245 195.335 80.5429 199.051 82.9873C202.409 85.1957 206.015 87.0649 208.707 90.1774C211.038 92.8727 213.373 95.565 215.807 98.3751C215.368 96.5451 214.106 95.2161 213.632 93.7876C212.409 90.1056 209.921 87.3583 207.872 84.2774C205.23 80.3027 202.453 76.492 199.23 72.9C196.305 69.64 193.387 66.5036 189.704 63.6529ZM106.419 48.1265C105.522 48.2197 104.625 48.3129 103.738 48.405C102.49 53.3226 103.756 55.4872 108.472 56.538C111.39 57.1885 111.347 57.1838 111.658 54.2677C111.777 53.1504 112.307 52.1219 113.563 51.94C114.956 51.7383 115.503 52.8466 115.743 53.8937C115.981 54.9293 115.861 56.0487 115.894 57.1314C115.916 57.8189 115.709 58.8068 116.439 59.014C119.027 59.7481 121.229 61.2675 123.818 62.8527C123.896 60.1665 122.566 58.2243 122.724 56.0704C122.814 54.8338 122.197 52.9648 123.879 52.7363C125.381 52.5323 125.67 54.3822 126.079 55.5819C126.846 57.8282 126.801 60.2407 127.214 62.6758C127.67 62.5245 127.994 62.4924 128.226 62.3289C131.459 60.0525 134.801 58.033 138.711 57.0953C139.945 56.7994 140.285 55.6562 140.108 54.4797C139.717 51.8802 139.231 49.2952 138.837 46.6962C138.635 45.3652 138.003 45.0126 136.747 45.429C135.407 45.8731 134.118 45.621 133.079 44.6492C131.77 43.425 130.754 43.7139 129.513 44.8725C127.186 47.0454 124.501 47.2008 122.286 45.0939C120.798 43.6789 119.873 43.9752 118.648 45.2332C116.969 46.9576 114.758 48.0093 112.587 46.9007C110.122 45.6425 108.434 46.2598 106.419 48.1265ZM90.2559 167.274C89.1171 169.454 87.9658 171.628 86.8441 173.817C86.1749 175.123 85.5185 176.435 85.3682 177.939C85.0842 180.778 83.2343 182.267 80.782 183.192C80.1372 183.436 79.4118 183.483 78.7916 183.769C76.8344 184.673 76.7213 186.152 78.4305 187.401C80.4108 188.849 82.3412 189.467 84.5022 187.651C85.2843 186.993 86.3449 186.392 87.5186 187.57C86.4151 188.629 86.7882 189.647 87.9752 190.171C89.3669 190.786 89.5398 189.417 89.954 188.572C91.5185 185.379 92.9387 182.104 94.6769 179.01C95.9514 176.742 95.8949 174.774 94.3236 172.813C92.9053 171.043 92.6769 168.472 90.2559 167.274ZM94.2468 146.971C93.0979 147.522 92.1588 148.843 90.3651 147.982C91.7693 145.069 94.7939 144.621 97.3682 143.055C93.6911 141.79 91.1603 143.186 88.9083 145.397C86.8165 147.451 86.6899 148.606 88.4693 150.817C89.5495 152.158 90.4998 153.593 91.1868 155.12C92.2996 157.592 93.8825 158.237 96.734 157.264C100.147 156.099 102.953 153.856 104.562 150.426C105.418 148.601 105.083 147.074 103.245 146.106C100.221 144.513 97.3107 144.879 94.2468 146.971ZM78.5406 102.664C77.952 103.362 77.4915 104.28 76.7505 104.715C74.6486 105.947 74.0696 108.134 73.4938 110.12C72.3016 114.233 74.939 116.808 78.9677 115.44C83.4133 113.931 86.9796 111.04 90.1544 107.054C86.345 105.164 83.0158 102.847 78.5406 102.664ZM125.184 183.276C123.067 183.668 121.378 184.902 119.777 186.215C115.482 189.739 115.479 189.853 117.104 195.125C117.834 197.492 118.76 197.988 120.998 196.808C124.736 194.836 127.291 191.757 128.849 187.801C130.169 184.449 129.193 183.058 125.184 183.276ZM67.6971 62.8004C67.8047 61.8282 68.7299 60.9185 68.1643 59.9196C63.8066 62.119 60.816 65.7192 57.5562 68.9159C54.3728 72.0376 50.8649 74.9769 48.3971 79.0284C48.7971 79.0625 48.8927 79.1025 48.9465 79.0708C54.3344 75.8957 59.8245 72.9745 66.0389 71.7309C66.9278 71.553 67.6362 70.8575 67.4259 69.8733C66.9426 67.6116 67.7429 65.4206 67.6971 62.8004ZM87.7649 59.0359C85.8671 59.0359 83.9692 59.0359 82.0714 59.0359C82.3862 59.4005 82.7306 59.5702 83.0895 59.611C91.4454 60.5596 99.325 63.5927 107.519 65.243C110.459 65.8351 113.41 66.3876 116.375 66.8321C117.385 66.9834 118.501 66.6466 118.761 65.4586C119.072 64.0339 117.696 64.1677 116.941 63.8773C107.696 60.3236 98.1249 58.6834 87.7649 59.0359ZM156.872 57.2699C154.604 57.655 152.309 57.9277 150.074 58.4564C147.761 59.0033 145.503 59.7872 143.228 60.4888C141.027 61.1674 138.777 61.7326 136.655 62.6072C134.615 63.4478 132.199 63.6004 130.688 65.6715C142.653 63.069 154.266 59.181 166.315 57.0036C163.257 56.4411 160.265 56.8284 156.872 57.2699ZM79.1508 51.6712C77.1425 54.1169 73.9652 55.0831 71.8774 57.5163C77.5877 53.0481 84.267 53.7573 91.1909 54.0543C89.5503 51.5479 89.1634 49.0307 88.3739 46.447C85.1749 48.0395 82.6027 50.3125 79.1508 51.6712ZM157.398 117.751C157.123 120.235 158.106 121.249 160.253 120.693C163.401 119.878 168.102 114.218 168.386 110.713C165.318 111.207 162.848 112.938 160.192 114.22C158.783 114.899 157.824 115.865 157.398 117.751ZM86.1101 97.8985C89.0902 96.116 91.4804 93.7734 93.342 90.6797C90.1701 89.8375 81.7467 92.9223 79.638 95.5855C81.5611 96.7603 83.6048 97.4977 86.1101 97.8985ZM200.235 154.926C203.196 153.546 204.092 149.985 202.634 144.82C200.229 146.344 198.266 148.202 196.79 150.532C196.142 151.554 195.597 152.765 196.442 153.987C197.3 155.229 198.515 155.45 200.235 154.926ZM107.311 172.695C110.543 171.98 112.939 170.052 114.806 167.4C116.158 165.482 115.628 164.289 113.305 163.883C110.064 163.317 105.392 168.987 106.508 172.149C106.574 172.336 106.838 172.452 107.311 172.695ZM103.241 187.408C102.722 186.638 102.185 186.273 101.5 187.259C101.06 187.891 100.614 188.528 100.095 189.091C98.8593 190.433 97.448 191.702 95.4972 191.081C93.6891 190.506 93.0455 188.88 92.8911 187.063C92.8847 186.987 92.6826 186.928 92.5323 186.838C92.2984 187.233 92.0492 187.621 91.8326 188.027C90.3645 190.775 90.5349 191.286 93.5917 191.751C97.5357 192.352 101.51 192.751 105.473 193.227C105.951 193.285 106.398 193.198 106.694 192.482C105.648 190.933 104.537 189.289 103.241 187.408ZM192.47 181.97C194.893 179.422 196.2 176.28 197.473 172.96C192.629 173.246 187.574 180.045 189.109 183.931C190.441 183.895 191.27 182.916 192.47 181.97ZM125.286 139.189C126.748 138.695 127.027 137.743 126.164 136.534C124.926 134.798 123.658 133.068 121.845 131.868C120.367 132.561 119.902 133.943 119.336 135.157C118.87 136.154 118.289 137.302 119.221 138.413C120.198 139.576 121.459 139.974 122.926 139.737C123.606 139.627 124.277 139.456 125.286 139.189ZM100.443 185.681C100.967 183.647 100.141 181.449 98.5942 181.098C96.6233 180.652 95.5666 182.026 94.8599 183.507C94.2962 184.688 94.4617 186.086 94.6238 187.388C94.8289 189.034 95.7674 189.49 97.2258 188.755C98.4904 188.118 99.3277 186.982 100.443 185.681ZM75.8629 133.641C76.4957 135.1 77.1452 136.692 79.1671 135.636C81.0276 134.665 82.7527 130.727 81.9737 129.54C81.4095 128.68 80.483 128.492 79.5489 128.481C76.6037 128.446 75.2961 130.111 75.8629 133.641ZM98.5445 50.4224C97.8161 50.1765 97.0502 50.0065 96.369 49.6653C95.5301 49.2451 94.6294 48.6104 95.0262 47.5392C95.4534 46.3862 96.5202 46.7721 97.4258 46.9674C98.3104 47.1582 98.9373 48.0597 100.032 47.9118C100.82 46.4542 100.45 45.4718 98.9315 44.8193C97.2316 44.0888 93.8194 45.1313 93.0375 46.7709C92.3479 48.2169 92.5338 49.6162 94.1711 50.2308C96.4431 51.0836 98.7426 51.8055 100.015 54.4621C100.652 52.547 100.344 51.3491 98.5445 50.4224ZM60.3909 177.216C61.2422 175.844 60.8756 174.638 59.7113 173.738C58.4306 172.748 56.9252 172.884 55.5623 173.536C54.719 173.94 54.0114 174.752 54.539 175.818C55.4162 177.591 56.2892 179.395 57.8744 180.686C59.3177 180.004 59.6434 178.658 60.3909 177.216ZM133.729 123.023C133.989 122.671 134.455 122.417 134.196 121.542C130.206 122.919 126.137 124.058 121.501 122.408C125.288 127.649 125.527 127.066 129.741 125.832C131.19 125.407 132.367 124.271 133.729 123.023ZM51.4432 149.014C52.6067 147.57 53.7565 146.111 53.8154 144.136C53.8388 143.351 53.7054 142.557 52.9081 142.162C52.1803 141.801 51.5769 142.249 51.0081 142.637C48.2955 144.489 47.5579 147.735 49.2004 151.118C49.9019 150.475 50.566 149.866 51.4432 149.014ZM145.588 47.0616C146.356 48.2705 145.544 48.9046 144.697 49.5164C143.903 50.0897 142.898 50.5427 143.489 51.9479C145.569 51.9083 147.094 50.7551 148.4 49.3551C149.505 48.1701 149.874 46.7747 148.394 45.5142C147.085 44.3989 145.388 44.6955 144.065 46.3176C144.509 46.5083 144.92 46.6849 145.588 47.0616ZM65.1472 100.594C64.3899 100.724 63.6347 100.868 62.8748 100.98C61.5104 101.182 61.1055 102.007 61.2838 103.297C61.4792 104.71 62.3674 105.057 63.5982 104.892C64.9116 104.715 65.8351 103.856 66.6222 102.905C67.8336 101.443 67.5233 100.847 65.1472 100.594ZM189.891 105.622C189.984 105.431 190.203 105.123 190.152 105.066C189.127 103.953 185.741 103.829 184.638 104.835C184.012 105.406 183.756 106.141 184.054 106.91C184.402 107.805 185.266 107.761 186.018 107.623C187.393 107.369 188.552 106.622 189.891 105.622ZM148.161 168.059C147.238 169.025 146.138 170.32 147.088 171.428C148.106 172.614 149.455 171.403 150.569 170.784C150.636 170.747 150.696 170.695 150.751 170.641C151.317 170.082 152.438 169.776 151.969 168.688C151.598 167.828 150.639 167.677 149.798 167.605C149.366 167.568 148.912 167.804 148.161 168.059ZM50.7722 114.058C50.0977 115.251 49.9889 116.553 50.2048 118.115C51.245 117.386 52.0333 116.458 52.7453 115.475C53.2219 114.816 54.0044 114.036 53.256 113.236C52.3557 112.274 51.6216 113.125 50.7722 114.058ZM147.452 192.247C145.781 192.704 144.323 193.351 144.391 195.596C145.801 195.448 146.926 194.918 147.951 194.304C149.018 193.666 149.417 192.799 147.452 192.247ZM77.7102 174.568C76.9122 173.49 76.0219 174.109 75.4164 174.651C74.2519 175.695 74.6682 177.038 74.9176 178.552C76.1511 177.303 77.0236 176.162 77.7102 174.568ZM199.724 118.117C198.95 118.899 198.036 119.611 198.196 121.061C199.857 120.927 200.944 120.252 201.22 118.713C201.395 117.731 201.013 117.156 199.724 118.117ZM164.19 173.621C162.176 174.881 162.143 175.334 164.081 176.953C164.589 175.855 166.001 175.001 164.19 173.621ZM168.844 141.532C168.074 141.474 167.231 141.2 166.7 142.174C168.867 143.014 168.961 142.99 168.844 141.532Z" fill="#292731"/>
<path d="M135.758 172.662C133.377 173.57 131.233 173.477 129.666 171.603C127.943 169.544 127.486 167.049 128.281 164.424C128.615 163.325 129.073 162.264 129.474 161.186C128.843 160.412 128.172 161.682 127.6 161.046C127.069 160.458 127.365 159.923 127.752 159.412C129.388 157.253 133.073 155.798 135.318 156.5C138.9 157.621 141.808 159.635 142.41 163.599C142.837 166.412 141.063 168.562 139.207 170.478C138.288 171.427 137.126 172.051 135.758 172.662ZM134.117 158.846C130.582 160.756 129.655 163.929 129.97 167.653C130.158 169.87 131.45 170.949 133.687 170.831C136.905 170.662 138.778 168.64 140.225 166.003C141.285 164.072 140.891 162.39 139.378 160.981C138.011 159.709 136.463 158.688 134.117 158.846Z" fill="#292731"/>
<path d="M73.2131 156.984C77.5405 157.317 80.0394 161.881 77.9394 165.349C76.2741 168.099 74.1219 170.359 71.1872 171.805C69.7549 172.51 68.3053 172.836 67.1807 171.532C66.0852 170.262 65.17 168.759 65.7419 166.904C66.128 165.652 66.5854 164.422 67.0374 163.105C65.1814 162.764 65.1147 161.933 66.3992 160.66C68.2766 158.799 70.854 158.283 73.2131 156.984ZM74.0015 160.19C70.5115 160.518 66.9881 164.911 67.5008 168.316C67.7315 169.848 68.6153 170.239 69.9771 169.643C72.3415 168.609 74.3281 167.07 75.8858 165.003C78.076 162.096 77.8104 161.301 74.0015 160.19Z" fill="#292731"/>
<path d="M104.257 125.316C103.717 129.773 98.5451 134.305 94.3292 134.233C92.0467 134.193 90.5561 132.472 91.0449 130.241C91.9141 126.275 94.5329 123.774 98.1822 122.398C100.2 121.637 102.842 122.998 104.257 125.316ZM95.7199 125.834C94.6261 126.826 93.7288 127.959 93.0745 129.3C92.6895 130.089 92.2698 130.85 92.8969 131.663C93.5614 132.524 94.5342 132.537 95.4251 132.24C98.1255 131.341 100.313 129.667 101.973 127.365C102.876 126.112 102.364 125.215 100.972 124.722C99.1318 124.07 97.5137 124.606 95.7199 125.834Z" fill="#292731"/>
<path d="M102.547 134.106C103.081 131.842 105.601 129.719 107.585 129.671C109.994 129.613 111.526 132.15 110.207 134.256C108.968 136.234 107.3 137.859 105.107 138.822C104.161 139.238 103.159 139.566 102.31 138.735C101.417 137.86 101.851 136.871 102.347 135.964C102.65 135.41 102.991 134.891 102.547 134.106ZM106.339 132.834C105.315 133.77 104.472 134.798 104.363 136.737C106.296 135.481 108.085 134.715 108.756 132.57C107.816 132.062 107.192 132.188 106.339 132.834Z" fill="#292731"/>
<path d="M144.968 185.767C144.812 186.058 144.742 186.196 144.658 186.325C143.755 187.712 143.092 189.588 140.902 188.922C139.609 188.529 139.026 185.559 139.649 183.438C140.243 181.415 141.67 180.51 143.628 180.808C145 181.017 145.374 182.014 145.433 183.119C145.478 183.939 145.188 184.778 144.968 185.767ZM141.029 185.297C141.121 185.924 140.813 186.724 141.762 187.018C142.915 186.467 143.2 185.259 143.797 184.309C144.143 183.762 144.241 183.053 143.616 182.655C142.961 182.238 142.292 182.505 141.744 183.032C141.198 183.555 141.126 184.245 141.029 185.297Z" fill="#292731"/>
<path d="M120.961 152.979C120.133 154.17 119.373 155.231 118.529 156.221C117.803 157.073 116.803 157.894 115.808 156.913C114.899 156.016 115.483 154.93 116.238 154.048C118.189 151.765 119.487 151.422 120.961 152.979Z" fill="#292731"/>
<path d="M188.908 174.233C189.642 176.247 189.146 177.919 188.103 179.452C186.653 181.581 184.882 183.382 182.649 184.716C179.087 186.843 176.918 186.012 175.761 182.009C175.199 181.731 174.644 182.759 174.091 182.033C173.769 181.611 173.825 181.111 174.111 180.731C176.571 177.463 176.997 173.247 179.155 169.83C179.659 169.033 180.216 168.311 180.86 167.658C181.833 166.67 182.973 166.068 184.387 166.696C185.89 167.363 186.731 168.498 186.935 170.352C185.228 170.186 184.675 167.851 182.954 168.669C181.244 169.482 180.649 171.262 179.665 173.012C183.086 171.105 186.455 169.148 188.908 174.233ZM184.035 180.742C185.049 179.691 186.128 178.689 186.816 177.374C187.328 176.393 187.694 175.385 186.893 174.346C186.025 173.221 184.778 172.842 183.602 173.33C180.491 174.62 178.196 176.794 177.367 180.219C177.114 181.26 177.422 182.255 178.173 182.972C178.951 183.716 179.897 183.389 180.769 183.029C181.918 182.554 182.927 181.864 184.035 180.742Z" fill="#292731"/>
<path d="M178.186 136.024C177.502 136.711 177.201 137.664 175.943 137.532C175.709 136.248 176.418 135.322 177.258 134.589C179.172 132.918 180.378 130.875 181.309 128.502C182.855 124.561 185.293 122.814 188.237 123.112C189.392 123.229 190.539 123.448 191.267 125.208C187.976 124.649 184.741 124.164 183.463 128.412C184.83 127.783 186.027 127.144 187.287 126.678C188.63 126.182 190.08 125.991 191.166 127.191C192.344 128.493 191.85 129.965 191.172 131.311C190.292 133.061 189.078 134.528 187.411 135.629C183.718 138.07 182.579 137.96 179.926 134.723C179.144 134.775 178.839 135.51 178.186 136.024ZM183.212 131.04C182.371 131.77 181.633 132.581 181.933 133.808C182.13 134.615 182.83 134.775 183.565 134.804C185.931 134.897 189.401 131.698 189.644 129.023C187.268 128.559 185.335 129.537 183.212 131.04Z" fill="#292731"/>
<path d="M155.578 140.975C154.2 143.997 152.27 146.187 149.182 147.132C146.089 148.078 143.506 145.789 144.179 142.607C144.602 140.602 145.493 138.754 145.575 136.6C145.646 134.759 150.886 131.837 152.656 132.318C152.937 132.395 153.386 132.572 153.415 132.756C153.841 135.532 156.394 137.713 155.578 140.975ZM153.741 140.372C154.248 138.223 153.112 136.882 151.359 136.141C149.651 135.418 148.885 137.009 148.075 138.058C147.277 139.091 146.606 140.252 146.055 141.439C145.594 142.433 145.407 143.626 146.32 144.472C147.23 145.315 148.308 145.028 149.327 144.477C151.049 143.548 152.616 142.452 153.741 140.372Z" fill="#292731"/>
<path d="M169.465 133.523C169.205 133.85 169.067 134.041 168.893 134.19C167.675 135.226 166.372 136.248 164.914 134.702C163.887 133.614 164.654 131.39 166.233 130.339C167.096 129.765 167.91 129.693 168.786 130.307C169.934 131.112 170.022 132.162 169.465 133.523Z" fill="#292731"/>
<path d="M132.656 51.7733C133.178 52.8917 133.121 53.9019 133.027 54.9045C132.941 55.8162 132.561 56.613 131.581 56.7567C130.562 56.9062 130.109 56.1095 129.718 55.3232C128.947 53.7752 129.528 52.4254 130.477 51.2556C131.227 50.3322 131.97 50.8563 132.656 51.7733Z" fill="#292731"/>
<rect x="112.462" y="75.869" width="4.16526" height="29.3237" rx="2.08263" fill="black"/>
<rect x="125.421" y="81.4547" width="4.16526" height="18.6182" rx="2.08263" fill="black"/>
</svg>
